Surety-Thin.ufo
<glyph name="quotedbl" format="2">
  <advance width="275"/>
  <unicode hex="0022"/>
  <outline>
    <contour>
      <point x="206" y="702" type="curve" smooth="yes"/>
      <point x="184.245" y="702"/>
      <point x="168" y="685.932"/>
      <point x="168" y="663" type="curve" smooth="yes"/>
      <point x="168" y="649.667"/>
      <point x="180" y="625"/>
      <point x="204" y="625" type="curve"/>
      <point x="202.667" y="589"/>
      <point x="177.667" y="561.667"/>
      <point x="143" y="543" type="curve"/>
      <point x="159" y="518" type="line"/>
      <point x="215.628" y="546.314"/>
      <point x="245" y="597.848"/>
      <point x="245" y="659" type="curve" smooth="yes"/>
      <point x="245" y="679"/>
      <point x="230" y="702"/>
    </contour>
    <contour>
      <point x="83" y="702" type="curve" smooth="yes"/>
      <point x="61.245" y="702"/>
      <point x="45" y="685.932"/>
      <point x="45" y="663" type="curve" smooth="yes"/>
      <point x="45" y="649.566"/>
      <point x="57.453" y="625"/>
      <point x="81" y="625" type="curve"/>
      <point x="79.667" y="589"/>
      <point x="54.667" y="561.667"/>
      <point x="20" y="543" type="curve"/>
      <point x="36" y="518" type="line"/>
      <point x="92.628" y="546.314"/>
      <point x="122" y="597.848"/>
      <point x="122" y="659" type="curve" smooth="yes"/>
      <point x="122" y="679"/>
      <point x="107" y="702"/>
    </contour>
  </outline>
</glyph>
<glyph name="dollar" format="2">
  <advance width="534"/>
  <unicode hex="0024"/>
  <outline>
    <contour>
      <point x="193" y="-111" type="line"/>
      <point x="193" y="-10" type="line"/>
      <point x="133.717" y="-1.217"/>
      <point x="74.167" y="14.093"/>
      <point x="55" y="29" type="curve"/>
      <point x="70" y="68" type="line"/>
      <point x="106.949" y="51.578"/>
      <point x="165.838" y="29"/>
      <point x="236" y="29" type="curve" smooth="yes"/>
      <point x="345.478" y="29"/>
      <point x="413" y="88.879"/>
      <point x="413" y="160" type="curve" smooth="yes"/>
      <point x="413" y="235.57"/>
      <point x="349.176" y="281.977"/>
      <point x="232" y="330" type="curve" smooth="yes"/>
      <point x="115.224" y="377.772"/>
      <point x="50" y="438.97"/>
      <point x="50" y="535" type="curve" smooth="yes"/>
      <point x="50" y="611"/>
      <point x="103.667" y="671.333"/>
      <point x="193" y="690" type="curve"/>
      <point x="193" y="787" type="line"/>
      <point x="233" y="797" type="line"/>
      <point x="233" y="694" type="line"/>
      <point x="238.333" y="695.333"/>
      <point x="248" y="696"/>
      <point x="256" y="696" type="curve" smooth="yes"/>
      <point x="270.667" y="696"/>
      <point x="286.667" y="695.667"/>
      <point x="300" y="693" type="curve"/>
      <point x="300" y="790" type="line"/>
      <point x="341" y="800" type="line"/>
      <point x="341" y="686" type="line"/>
      <point x="373" y="679.333"/>
      <point x="402.667" y="667.667"/>
      <point x="424" y="657" type="curve"/>
      <point x="402" y="621" type="line"/>
      <point x="367.914" y="637.041"/>
      <point x="327.726" y="655"/>
      <point x="258" y="655" type="curve" smooth="yes"/>
      <point x="162" y="655"/>
      <point x="102" y="599.333"/>
      <point x="102" y="530" type="curve" smooth="yes"/>
      <point x="102" y="452.428"/>
      <point x="168.114" y="403.68"/>
      <point x="283" y="355" type="curve" smooth="yes"/>
      <point x="400.588" y="305.352"/>
      <point x="464" y="248.85"/>
      <point x="464" y="157" type="curve" smooth="yes"/>
      <point x="464" y="83.667"/>
      <point x="422.333" y="27.667"/>
      <point x="341" y="1" type="curve"/>
      <point x="341" y="-111" type="line"/>
      <point x="300" y="-111" type="line"/>
      <point x="300" y="-8" type="line"/>
      <point x="281.333" y="-10.667"/>
      <point x="259.667" y="-13"/>
      <point x="237" y="-13" type="curve" smooth="yes"/>
      <point x="233" y="-13" type="line"/>
      <point x="233" y="-111" type="line"/>
    </contour>
  </outline>
</glyph>
<glyph name="ampersand" format="2">
  <advance width="647"/>
  <unicode hex="0026"/>
  <outline>
    <contour>
      <point x="453" y="117" type="line"/>
      <point x="414.333" y="65"/>
      <point x="357" y="28"/>
      <point x="289" y="28" type="curve" smooth="yes"/>
      <point x="189.5" y="28"/>
      <point x="97" y="96.487"/>
      <point x="97" y="202" type="curve" smooth="yes"/>
      <point x="97" y="270"/>
      <point x="124.667" y="329.667"/>
      <point x="182" y="371" type="curve"/>
      <point x="199.333" y="349.667"/>
      <point x="220.667" y="328.667"/>
      <point x="242" y="310" type="curve" smooth="yes"/>
    </contour>
    <contour>
      <point x="582" y="0" type="line"/>
      <point x="607" y="27" type="line"/>
      <point x="507" y="120" type="line"/>
      <point x="544.333" y="181.333"/>
      <point x="563" y="256"/>
      <point x="563" y="328" type="curve"/>
      <point x="527" y="339" type="line"/>
      <point x="527" y="277.667"/>
      <point x="508.333" y="207.333"/>
      <point x="475" y="150" type="curve"/>
      <point x="277" y="335" type="line" smooth="yes"/>
      <point x="210.823" y="399.231"/>
      <point x="168" y="452.433"/>
      <point x="168" y="526" type="curve" smooth="yes"/>
      <point x="168" y="598.776"/>
      <point x="227.698" y="655"/>
      <point x="299" y="655" type="curve" smooth="yes"/>
      <point x="360.333" y="655"/>
      <point x="387.667" y="638"/>
      <point x="421" y="622" type="curve"/>
      <point x="441" y="657" type="line"/>
      <point x="410.333" y="675.667"/>
      <point x="356.667" y="696"/>
      <point x="290" y="696" type="curve" smooth="yes"/>
      <point x="197.627" y="696"/>
      <point x="121" y="623.145"/>
      <point x="121" y="522" type="curve" smooth="yes"/>
      <point x="121" y="476.667"/>
      <point x="135.333" y="438.667"/>
      <point x="158" y="404" type="curve"/>
      <point x="94" y="361.333"/>
      <point x="50" y="288"/>
      <point x="50" y="200" type="curve" smooth="yes"/>
      <point x="50" y="71.724"/>
      <point x="147.443" y="-13"/>
      <point x="286" y="-13" type="curve" smooth="yes"/>
      <point x="370" y="-13"/>
      <point x="439.667" y="26.667"/>
      <point x="485" y="88" type="curve"/>
    </contour>
  </outline>
</glyph>
<glyph name="quotesingle" format="2">
  <advance width="152"/>
  <unicode hex="0027"/>
  <outline>
    <contour>
      <point x="83" y="702" type="curve" smooth="yes"/>
      <point x="61.245" y="702"/>
      <point x="45" y="685.932"/>
      <point x="45" y="663" type="curve" smooth="yes"/>
      <point x="45" y="649.566"/>
      <point x="57.453" y="625"/>
      <point x="81" y="625" type="curve"/>
      <point x="79.667" y="589"/>
      <point x="54.667" y="561.667"/>
      <point x="20" y="543" type="curve"/>
      <point x="36" y="518" type="line"/>
      <point x="92.628" y="546.314"/>
      <point x="122" y="597.848"/>
      <point x="122" y="659" type="curve" smooth="yes"/>
      <point x="122" y="679"/>
      <point x="107" y="702"/>
    </contour>
  </outline>
</glyph>
<glyph name="parenleft" format="2">
  <advance width="239"/>
  <unicode hex="0028"/>
  <outline>
    <contour>
      <point x="209" y="-19" type="line"/>
      <point x="150.113" y="42.564"/>
      <point x="101" y="222.853"/>
      <point x="101" y="321" type="curve" smooth="yes"/>
      <point x="101" y="417.334"/>
      <point x="150.054" y="592.695"/>
      <point x="209" y="657" type="curve"/>
      <point x="169" y="675" type="line"/>
      <point x="86.943" y="571.452"/>
      <point x="50" y="428.175"/>
      <point x="50" y="320" type="curve" smooth="yes"/>
      <point x="50" y="210.644"/>
      <point x="86.624" y="68.912"/>
      <point x="169" y="-37" type="curve"/>
    </contour>
  </outline>
</glyph>
<glyph name="parenright" format="2">
  <advance width="239"/>
  <unicode hex="0029"/>
  <outline>
    <contour>
      <point x="30" y="657" type="line"/>
      <point x="90.916" y="587.382"/>
      <point x="138" y="408.853"/>
      <point x="138" y="319" type="curve" smooth="yes"/>
      <point x="138" y="222.163"/>
      <point x="88.021" y="44.547"/>
      <point x="30" y="-19" type="curve"/>
      <point x="70" y="-37" type="line"/>
      <point x="150.166" y="68.585"/>
      <point x="189" y="211.495"/>
      <point x="189" y="320" type="curve" smooth="yes"/>
      <point x="189" y="426.319"/>
      <point x="150.348" y="571.136"/>
      <point x="70" y="675" type="curve"/>
    </contour>
  </outline>
</glyph>
<glyph name="period" format="2">
  <advance width="137"/>
  <unicode hex="002E"/>
  <outline>
    <contour>
      <point x="68" y="0" type="curve" smooth="yes"/>
      <point x="89.333" y="0"/>
      <point x="107" y="16.667"/>
      <point x="107" y="38" type="curve" smooth="yes"/>
      <point x="107" y="59.333"/>
      <point x="89.333" y="76"/>
      <point x="68" y="76" type="curve" smooth="yes"/>
      <point x="45.333" y="76"/>
      <point x="30" y="59.333"/>
      <point x="30" y="38" type="curve" smooth="yes"/>
      <point x="30" y="16.667"/>
      <point x="45.333" y="0"/>
    </contour>
  </outline>
</glyph>
<glyph name="two" format="2">
  <advance width="470"/>
  <unicode hex="0032"/>
  <outline>
    <contour>
      <point x="450" y="0" type="line"/>
      <point x="25" y="0" type="line"/>
      <point x="25" y="50" type="line"/>
      <point x="250" y="238" type="line" smooth="yes"/>
      <point x="308" y="287"/>
      <point x="367" y="335"/>
      <point x="367" y="417" type="curve" smooth="yes"/>
      <point x="367" y="487.667"/>
      <point x="303.667" y="539"/>
      <point x="217" y="539" type="curve" smooth="yes"/>
      <point x="146.763" y="539"/>
      <point x="96.819" y="513.455"/>
      <point x="60" y="493" type="curve"/>
      <point x="38" y="527" type="line"/>
      <point x="75.333" y="549.667"/>
      <point x="133.667" y="579"/>
      <point x="219" y="579" type="curve" smooth="yes"/>
      <point x="334.252" y="579"/>
      <point x="419" y="511.676"/>
      <point x="419" y="418" type="curve" smooth="yes"/>
      <point x="419" y="342.697"/>
      <point x="367.377" y="273.902"/>
      <point x="270" y="196" type="curve" smooth="yes"/>
      <point x="75" y="39" type="line"/>
      <point x="442" y="39" type="line"/>
    </contour>
  </outline>
</glyph>
<glyph name="three" format="2">
  <advance width="447"/>
  <unicode hex="0033"/>
  <outline>
    <contour>
      <point x="205" y="579" type="curve" smooth="yes"/>
      <point x="125" y="579"/>
      <point x="63" y="553.333"/>
      <point x="11" y="520" type="curve"/>
      <point x="42" y="489" type="line"/>
      <point x="74" y="510.333"/>
      <point x="130" y="538"/>
      <point x="202" y="538" type="curve" smooth="yes"/>
      <point x="285.09" y="538"/>
      <point x="339" y="477.893"/>
      <point x="339" y="416" type="curve" smooth="yes"/>
      <point x="339" y="340"/>
      <point x="272" y="286"/>
      <point x="160" y="286" type="curve" smooth="yes"/>
      <point x="126" y="286" type="line"/>
      <point x="136" y="247" type="line"/>
      <point x="154" y="247" type="line" smooth="yes"/>
      <point x="292.667" y="247"/>
      <point x="351" y="189.333"/>
      <point x="351" y="104" type="curve" smooth="yes"/>
      <point x="351" y="25.465"/>
      <point x="275.17" y="-35"/>
      <point x="193" y="-35" type="curve" smooth="yes"/>
      <point x="119.667" y="-35"/>
      <point x="79.667" y="-18"/>
      <point x="33" y="10" type="curve"/>
      <point x="0" y="-24" type="line"/>
      <point x="45.333" y="-49.333"/>
      <point x="115.333" y="-76"/>
      <point x="190" y="-76" type="curve" smooth="yes"/>
      <point x="317.94" y="-76"/>
      <point x="402" y="2.038"/>
      <point x="402" y="106" type="curve" smooth="yes"/>
      <point x="402" y="187.226"/>
      <point x="351.425" y="252.121"/>
      <point x="276" y="268" type="curve"/>
      <point x="343.271" y="289.022"/>
      <point x="390" y="349.411"/>
      <point x="390" y="417" type="curve" smooth="yes"/>
      <point x="390" y="523"/>
      <point x="303" y="579"/>
    </contour>
  </outline>
</glyph>
<glyph name="five" format="2">
  <advance width="491"/>
  <unicode hex="0035"/>
  <outline>
    <contour>
      <point x="116" y="230" type="line"/>
      <point x="142.667" y="259.333"/>
      <point x="193.667" y="289"/>
      <point x="247" y="289" type="curve" smooth="yes"/>
      <point x="339" y="289"/>
      <point x="399" y="226"/>
      <point x="399" y="130" type="curve" smooth="yes"/>
      <point x="399" y="34"/>
      <point x="336" y="-35"/>
      <point x="224" y="-35" type="curve" smooth="yes"/>
      <point x="162.667" y="-35"/>
      <point x="110.667" y="-18"/>
      <point x="64" y="10" type="curve"/>
      <point x="40" y="-26" type="line"/>
      <point x="87.169" y="-49.585"/>
      <point x="146.979" y="-76"/>
      <point x="220" y="-76" type="curve" smooth="yes"/>
      <point x="375" y="-76"/>
      <point x="451" y="24"/>
      <point x="451" y="130" type="curve" smooth="yes"/>
      <point x="451" y="261"/>
      <point x="368" y="330"/>
      <point x="243" y="330" type="curve" smooth="yes"/>
      <point x="209.667" y="330"/>
      <point x="165" y="315.667"/>
      <point x="129" y="289" type="curve"/>
      <point x="140" y="527" type="line"/>
      <point x="409" y="527" type="line"/>
      <point x="412" y="566" type="line"/>
      <point x="95" y="566" type="line"/>
      <point x="80" y="230" type="line"/>
    </contour>
  </outline>
</glyph>
<glyph name="six" format="2">
  <advance width="492"/>
  <unicode hex="0036"/>
  <outline>
    <contour>
      <point x="65" y="285" type="curve"/>
      <point x="82" y="248" type="line"/>
      <point x="114" y="299"/>
      <point x="181.183" y="346"/>
      <point x="253" y="346" type="curve" smooth="yes"/>
      <point x="343.971" y="346"/>
      <point x="401" y="279.366"/>
      <point x="401" y="185" type="curve" smooth="yes"/>
      <point x="401" y="106.22"/>
      <point x="346.299" y="28"/>
      <point x="252" y="28" type="curve" smooth="yes"/>
      <point x="146.001" y="28"/>
      <point x="87" y="115.949"/>
      <point x="87" y="270" type="curve" smooth="yes"/>
      <point x="87" y="447"/>
      <point x="244" y="586"/>
      <point x="393" y="594" type="curve"/>
      <point x="375" y="634" type="line"/>
      <point x="191" y="611"/>
      <point x="40" y="464"/>
      <point x="40" y="260" type="curve" smooth="yes"/>
      <point x="40" y="81.697"/>
      <point x="128.976" y="-13"/>
      <point x="254" y="-13" type="curve" smooth="yes"/>
      <point x="373" y="-13"/>
      <point x="452" y="87"/>
      <point x="452" y="190" type="curve" smooth="yes"/>
      <point x="452" y="304"/>
      <point x="370" y="387"/>
      <point x="253" y="387" type="curve" smooth="yes"/>
      <point x="159" y="387"/>
      <point x="102" y="332"/>
    </contour>
  </outline>
</glyph>
<glyph name="eight" format="2">
  <advance width="501"/>
  <unicode hex="0038"/>
  <outline>
    <contour>
      <point x="251" y="643" type="curve" smooth="yes"/>
      <point x="119" y="643"/>
      <point x="68" y="561"/>
      <point x="68" y="481" type="curve" smooth="yes"/>
      <point x="68" y="414.333"/>
      <point x="115.667" y="363"/>
      <point x="177" y="339" type="curve"/>
      <point x="101.765" y="323.161"/>
      <point x="40" y="241.766"/>
      <point x="40" y="169" type="curve" smooth="yes"/>
      <point x="40" y="50"/>
      <point x="129" y="-13"/>
      <point x="251" y="-13" type="curve" smooth="yes"/>
      <point x="379" y="-13"/>
      <point x="461" y="61"/>
      <point x="461" y="169" type="curve" smooth="yes"/>
      <point x="461" y="252.493"/>
      <point x="397.577" y="322.872"/>
      <point x="325" y="339" type="curve"/>
      <point x="383.442" y="364.974"/>
      <point x="433" y="416.656"/>
      <point x="433" y="481" type="curve" smooth="yes"/>
      <point x="433" y="585"/>
      <point x="355" y="643"/>
    </contour>
    <contour>
      <point x="248" y="602" type="curve" smooth="yes"/>
      <point x="341.333" y="602"/>
      <point x="384" y="545.333"/>
      <point x="384" y="484" type="curve" smooth="yes"/>
      <point x="384" y="435.191"/>
      <point x="338" y="372"/>
      <point x="251" y="360" type="curve"/>
      <point x="166" y="372"/>
      <point x="118" y="428"/>
      <point x="118" y="484" type="curve" smooth="yes"/>
      <point x="118" y="542.219"/>
      <point x="157.848" y="602"/>
    </contour>
    <contour>
      <point x="251" y="316" type="curve"/>
      <point x="356" y="303"/>
      <point x="410" y="238"/>
      <point x="410" y="162" type="curve" smooth="yes"/>
      <point x="410" y="88.582"/>
      <point x="343.431" y="28"/>
      <point x="251" y="28" type="curve" smooth="yes"/>
      <point x="155.776" y="28"/>
      <point x="91" y="88.395"/>
      <point x="91" y="162" type="curve" smooth="yes"/>
      <point x="91" y="238"/>
      <point x="144" y="303"/>
    </contour>
  </outline>
</glyph>
<glyph name="nine" format="2">
  <advance width="492"/>
  <unicode hex="0039"/>
  <outline>
    <contour>
      <point x="427" y="280" type="curve"/>
      <point x="410" y="317" type="line"/>
      <point x="382.123" y="271.201"/>
      <point x="315.355" y="219"/>
      <point x="239" y="219" type="curve" smooth="yes"/>
      <point x="145.767" y="219"/>
      <point x="91" y="289.933"/>
      <point x="91" y="380" type="curve" smooth="yes"/>
      <point x="91" y="455.72"/>
      <point x="144.767" y="537"/>
      <point x="240" y="537" type="curve" smooth="yes"/>
      <point x="345.327" y="537"/>
      <point x="405" y="451.993"/>
      <point x="405" y="295" type="curve" smooth="yes"/>
      <point x="405" y="118"/>
      <point x="248" y="-21"/>
      <point x="99" y="-29" type="curve"/>
      <point x="117" y="-69" type="line"/>
      <point x="310" y="-45"/>
      <point x="452" y="110"/>
      <point x="452" y="305" type="curve" smooth="yes"/>
      <point x="452" y="478.606"/>
      <point x="367.632" y="578"/>
      <point x="238" y="578" type="curve" smooth="yes"/>
      <point x="122.111" y="578"/>
      <point x="40" y="481.502"/>
      <point x="40" y="375" type="curve" smooth="yes"/>
      <point x="40" y="278.509"/>
      <point x="105.039" y="178"/>
      <point x="239" y="178" type="curve" smooth="yes"/>
      <point x="330" y="178"/>
      <point x="388" y="230"/>
    </contour>
  </outline>
</glyph>
<glyph name="semicolon" format="2">
  <advance width="152"/>
  <unicode hex="003B"/>
  <outline>
    <contour>
      <point x="83" y="365" type="curve" smooth="yes"/>
      <point x="104.333" y="365"/>
      <point x="122" y="381.667"/>
      <point x="122" y="403" type="curve" smooth="yes"/>
      <point x="122" y="424.333"/>
      <point x="104.333" y="441"/>
      <point x="83" y="441" type="curve" smooth="yes"/>
      <point x="60.333" y="441"/>
      <point x="45" y="424.333"/>
      <point x="45" y="403" type="curve" smooth="yes"/>
      <point x="45" y="381.667"/>
      <point x="60.333" y="365"/>
    </contour>
    <contour>
      <point x="83" y="122" type="curve" smooth="yes"/>
      <point x="61.245" y="122"/>
      <point x="45" y="105.932"/>
      <point x="45" y="83" type="curve" smooth="yes"/>
      <point x="45" y="69.566"/>
      <point x="57.453" y="45"/>
      <point x="81" y="45" type="curve"/>
      <point x="79.667" y="9"/>
      <point x="54.667" y="-18.333"/>
      <point x="20" y="-37" type="curve"/>
      <point x="36" y="-62" type="line"/>
      <point x="92.628" y="-33.686"/>
      <point x="122" y="17.848"/>
      <point x="122" y="79" type="curve" smooth="yes"/>
      <point x="122" y="99"/>
      <point x="107" y="122"/>
    </contour>
  </outline>
</glyph>
<glyph name="at" format="2">
  <advance width="760"/>
  <unicode hex="0040"/>
  <outline>
    <contour>
      <point x="527" y="384" type="line"/>
      <point x="511" y="404" type="line"/>
      <point x="440" y="404" type="line" smooth="yes"/>
      <point x="324.039" y="404"/>
      <point x="227" y="322.798"/>
      <point x="227" y="211" type="curve" smooth="yes"/>
      <point x="227" y="125.667"/>
      <point x="290.667" y="66"/>
      <point x="384" y="66" type="curve" smooth="yes"/>
      <point x="414.667" y="66"/>
      <point x="452.667" y="80.333"/>
      <point x="478" y="99" type="curve"/>
      <point x="495.333" y="76.333"/>
      <point x="522" y="61"/>
      <point x="558" y="61" type="curve" smooth="yes"/>
      <point x="660.649" y="61"/>
      <point x="720" y="148.467"/>
      <point x="720" y="304" type="curve" smooth="yes"/>
      <point x="720" y="464.897"/>
      <point x="603.416" y="594"/>
      <point x="417" y="594" type="curve" smooth="yes"/>
      <point x="171.634" y="594"/>
      <point x="40" y="418.756"/>
      <point x="40" y="213" type="curve" smooth="yes"/>
      <point x="40" y="22.224"/>
      <point x="181.561" y="-96"/>
      <point x="348" y="-96" type="curve" smooth="yes"/>
      <point x="413.333" y="-96"/>
      <point x="479" y="-87.333"/>
      <point x="535" y="-58" type="curve"/>
      <point x="522" y="-20" type="line"/>
      <point x="482.075" y="-41.959"/>
      <point x="418.318" y="-55"/>
      <point x="359" y="-55" type="curve" smooth="yes"/>
      <point x="212.279" y="-55"/>
      <point x="91" y="44.664"/>
      <point x="91" y="214" type="curve" smooth="yes"/>
      <point x="91" y="418.612"/>
      <point x="227.676" y="553"/>
      <point x="414" y="553" type="curve" smooth="yes"/>
      <point x="574.004" y="553"/>
      <point x="672" y="450.345"/>
      <point x="672" y="297" type="curve" smooth="yes"/>
      <point x="672" y="174.27"/>
      <point x="625.169" y="102"/>
      <point x="560" y="102" type="curve" smooth="yes"/>
      <point x="518.667" y="102"/>
      <point x="496.333" y="125.667"/>
      <point x="503" y="183" type="curve" smooth="yes"/>
    </contour>
    <contour>
      <point x="384" y="103" type="curve" smooth="yes"/>
      <point x="318.836" y="103"/>
      <point x="278" y="143.599"/>
      <point x="278" y="211" type="curve" smooth="yes"/>
      <point x="278" y="304.883"/>
      <point x="349.015" y="367"/>
      <point x="435" y="367" type="curve" smooth="yes"/>
      <point x="480" y="367" type="line"/>
      <point x="457" y="190" type="line" smooth="yes"/>
      <point x="455.667" y="171.333"/>
      <point x="452.667" y="147.667"/>
      <point x="462" y="125" type="curve"/>
      <point x="444.667" y="113"/>
      <point x="413.333" y="103"/>
    </contour>
  </outline>
</glyph>
<glyph name="B" format="2">
  <advance width="565"/>
  <unicode hex="0042"/>
  <outline>
    <contour>
      <point x="269" y="0" type="line"/>
      <point x="413.003" y="0"/>
      <point x="525" y="46.946"/>
      <point x="525" y="188" type="curve" smooth="yes"/>
      <point x="525" y="282.667"/>
      <point x="468.667" y="336.667"/>
      <point x="386" y="362" type="curve"/>
      <point x="440.667" y="388.667"/>
      <point x="487" y="435"/>
      <point x="487" y="503" type="curve" smooth="yes"/>
      <point x="487" y="646"/>
      <point x="373" y="680"/>
      <point x="242" y="680" type="curve" smooth="yes"/>
      <point x="100" y="680" type="line"/>
      <point x="100" y="0" type="line"/>
    </contour>
    <contour>
      <point x="254" y="641" type="line"/>
      <point x="361" y="641"/>
      <point x="435" y="609"/>
      <point x="435" y="502" type="curve" smooth="yes"/>
      <point x="435" y="399"/>
      <point x="334" y="374"/>
      <point x="241" y="372" type="curve" smooth="yes"/>
      <point x="150" y="372" type="line"/>
      <point x="150" y="641" type="line"/>
    </contour>
    <contour>
      <point x="292" y="333" type="line"/>
      <point x="401.333" y="333"/>
      <point x="473" y="287.333"/>
      <point x="473" y="186" type="curve" smooth="yes"/>
      <point x="473" y="84.112"/>
      <point x="392.985" y="39"/>
      <point x="281" y="39" type="curve" smooth="yes"/>
      <point x="150" y="39" type="line"/>
      <point x="150" y="333" type="line"/>
    </contour>
  </outline>
</glyph>
<glyph name="C" format="2">
  <advance width="553"/>
  <unicode hex="0043"/>
  <anchor x="352" y="0" name="bottom"/>
  <anchor x="359" y="680" name="top"/>
  <outline>
    <contour>
      <point x="523" y="657" type="line"/>
      <point x="490.382" y="680.558"/>
      <point x="409.313" y="694"/>
      <point x="360" y="694" type="curve" smooth="yes"/>
      <point x="166.214" y="694"/>
      <point x="50" y="539.409"/>
      <point x="50" y="336" type="curve" smooth="yes"/>
      <point x="50" y="150.122"/>
      <point x="146.619" y="-14"/>
      <point x="354" y="-14" type="curve" smooth="yes"/>
      <point x="415.709" y="-14"/>
      <point x="487.952" y="3.529"/>
      <point x="523" y="23" type="curve"/>
      <point x="499" y="59" type="line"/>
      <point x="463" y="43"/>
      <point x="421" y="29"/>
      <point x="349" y="29" type="curve" smooth="yes"/>
      <point x="192.922" y="29"/>
      <point x="105" y="175.597"/>
      <point x="105" y="337" type="curve" smooth="yes"/>
      <point x="105" y="508"/>
      <point x="199" y="651"/>
      <point x="358" y="651" type="curve" smooth="yes"/>
      <point x="421.187" y="651"/>
      <point x="461.059" y="639.873"/>
      <point x="503" y="621" type="curve"/>
    </contour>
  </outline>
</glyph>
<glyph name="D" format="2">
  <advance width="662"/>
  <unicode hex="0044"/>
  <anchor x="316" y="680" name="top"/>
  <outline>
    <contour>
      <point x="321" y="0" type="line"/>
      <point x="517.538" y="0"/>
      <point x="612" y="150.338"/>
      <point x="612" y="344" type="curve" smooth="yes"/>
      <point x="612" y="543"/>
      <point x="524" y="680"/>
      <point x="324" y="680" type="curve" smooth="yes"/>
      <point x="100" y="680" type="line"/>
      <point x="100" y="0" type="line"/>
    </contour>
    <contour>
      <point x="332" y="641" type="line"/>
      <point x="481.169" y="641"/>
      <point x="561" y="514.406"/>
      <point x="561" y="343" type="curve" smooth="yes"/>
      <point x="561" y="182"/>
      <point x="476" y="39"/>
      <point x="322" y="39" type="curve" smooth="yes"/>
      <point x="149" y="39" type="line"/>
      <point x="149" y="641" type="line"/>
    </contour>
  </outline>
</glyph>
<glyph name="G" format="2">
  <advance width="614"/>
  <unicode hex="0047"/>
  <outline>
    <contour>
      <point x="382" y="-14" type="curve" smooth="yes"/>
      <point x="443.475" y="-14"/>
      <point x="516.264" y="7.176"/>
      <point x="552" y="31" type="curve"/>
      <point x="552" y="342" type="line"/>
      <point x="356" y="342" type="line"/>
      <point x="350" y="303" type="line"/>
      <point x="503" y="303" type="line"/>
      <point x="503" y="52" type="line"/>
      <point x="469.667" y="40"/>
      <point x="429" y="29"/>
      <point x="381" y="29" type="curve" smooth="yes"/>
      <point x="219.698" y="29"/>
      <point x="105" y="157.206"/>
      <point x="105" y="336" type="curve" smooth="yes"/>
      <point x="105" y="519.487"/>
      <point x="223.836" y="653"/>
      <point x="390" y="653" type="curve" smooth="yes"/>
      <point x="454.773" y="653"/>
      <point x="491.489" y="643.58"/>
      <point x="535" y="624" type="curve"/>
      <point x="554" y="657" type="line"/>
      <point x="521.398" y="680.546"/>
      <point x="438.694" y="694"/>
      <point x="388" y="694" type="curve" smooth="yes"/>
      <point x="191.869" y="694"/>
      <point x="50" y="543.724"/>
      <point x="50" y="336" type="curve" smooth="yes"/>
      <point x="50" y="140"/>
      <point x="171" y="-14"/>
    </contour>
  </outline>
</glyph>
<glyph name="J" format="2">
  <advance width="237"/>
  <unicode hex="004A"/>
  <outline>
    <contour>
      <point x="98" y="49" type="line" smooth="yes"/>
      <point x="98" y="-32"/>
      <point x="74" y="-45"/>
      <point x="10" y="-70" type="curve"/>
      <point x="34" y="-102" type="line"/>
      <point x="130" y="-72"/>
      <point x="147" y="-39"/>
      <point x="147" y="42" type="curve" smooth="yes"/>
      <point x="147" y="680" type="line"/>
      <point x="98" y="680" type="line"/>
    </contour>
  </outline>
</glyph>
<glyph name="L" format="2">
  <advance width="491"/>
  <unicode hex="004C"/>
  <outline>
    <contour>
      <point x="476" y="39" type="line"/>
      <point x="149" y="39" type="line"/>
      <point x="149" y="680" type="line"/>
      <point x="100" y="680" type="line"/>
      <point x="100" y="0" type="line"/>
      <point x="481" y="0" type="line"/>
    </contour>
  </outline>
</glyph>
<glyph name="O" format="2">
  <advance width="707"/>
  <unicode hex="004F"/>
  <outline>
    <contour>
      <point x="351" y="-14" type="curve" smooth="yes"/>
      <point x="175.468" y="-14"/>
      <point x="50" y="132.448"/>
      <point x="50" y="337" type="curve" smooth="yes"/>
      <point x="50" y="545.168"/>
      <point x="177.711" y="696"/>
      <point x="357" y="696" type="curve" smooth="yes"/>
      <point x="548" y="696"/>
      <point x="657" y="531"/>
      <point x="657" y="345" type="curve" smooth="yes"/>
      <point x="657" y="136.943"/>
      <point x="529.732" y="-14"/>
    </contour>
    <contour>
      <point x="349" y="27" type="curve" smooth="yes"/>
      <point x="497.086" y="27"/>
      <point x="602" y="160.7"/>
      <point x="602" y="344" type="curve" smooth="yes"/>
      <point x="602" y="523.307"/>
      <point x="500.444" y="654"/>
      <point x="358" y="654" type="curve" smooth="yes"/>
      <point x="210.841" y="654"/>
      <point x="105" y="520.779"/>
      <point x="105" y="338" type="curve" smooth="yes"/>
      <point x="105" y="158.078"/>
      <point x="206.314" y="27"/>
    </contour>
  </outline>
</glyph>
<glyph name="Q" format="2">
  <advance width="707"/>
  <unicode hex="0051"/>
  <outline>
    <contour>
      <point x="439" y="209" type="line"/>
      <point x="405" y="176" type="line"/>
      <point x="618" y="-24" type="line"/>
      <point x="650" y="1" type="line"/>
    </contour>
    <contour>
      <point x="357" y="696" type="curve" smooth="yes"/>
      <point x="177.711" y="696"/>
      <point x="50" y="545.168"/>
      <point x="50" y="337" type="curve" smooth="yes"/>
      <point x="50" y="132.448"/>
      <point x="175.468" y="-14"/>
      <point x="351" y="-14" type="curve" smooth="yes"/>
      <point x="529.732" y="-14"/>
      <point x="657" y="136.943"/>
      <point x="657" y="345" type="curve" smooth="yes"/>
      <point x="657" y="535"/>
      <point x="544" y="696"/>
    </contour>
    <contour>
      <point x="105" y="338" type="curve" smooth="yes"/>
      <point x="105" y="520.779"/>
      <point x="210.841" y="654"/>
      <point x="358" y="654" type="curve" smooth="yes"/>
      <point x="500.444" y="654"/>
      <point x="602" y="523.307"/>
      <point x="602" y="344" type="curve" smooth="yes"/>
      <point x="602" y="160.7"/>
      <point x="497.086" y="27"/>
      <point x="349" y="27" type="curve" smooth="yes"/>
      <point x="206.314" y="27"/>
      <point x="105" y="158.078"/>
    </contour>
  </outline>
</glyph>
<glyph name="R" format="2">
  <advance width="572"/>
  <unicode hex="0052"/>
  <outline>
    <contour>
      <point x="265" y="640" type="line"/>
      <point x="376.745" y="640"/>
      <point x="458" y="594.947"/>
      <point x="458" y="484" type="curve" smooth="yes"/>
      <point x="458" y="366"/>
      <point x="348" y="325"/>
      <point x="254" y="325" type="curve" smooth="yes"/>
      <point x="149" y="325" type="line"/>
      <point x="149" y="640" type="line"/>
    </contour>
    <contour>
      <point x="100" y="680" type="line"/>
      <point x="100" y="0" type="line"/>
      <point x="149" y="0" type="line"/>
      <point x="149" y="286" type="line"/>
      <point x="252" y="286" type="line" smooth="yes"/>
      <point x="282.667" y="286"/>
      <point x="313.667" y="289.333"/>
      <point x="343" y="296" type="curve"/>
      <point x="507" y="0" type="line"/>
      <point x="562" y="0" type="line"/>
      <point x="385" y="309" type="line"/>
      <point x="457" y="337"/>
      <point x="508" y="394"/>
      <point x="508" y="486" type="curve" smooth="yes"/>
      <point x="508" y="636"/>
      <point x="395" y="680"/>
      <point x="263" y="680" type="curve" smooth="yes"/>
    </contour>
  </outline>
</glyph>
<glyph name="S" format="2">
  <advance width="504"/>
  <unicode hex="0053"/>
  <outline>
    <contour>
      <point x="55" y="29" type="line"/>
      <point x="84.474" y="6.076"/>
      <point x="190.128" y="-13"/>
      <point x="237" y="-13" type="curve" smooth="yes"/>
      <point x="385.926" y="-13"/>
      <point x="464" y="57.663"/>
      <point x="464" y="157" type="curve" smooth="yes"/>
      <point x="464" y="248.85"/>
      <point x="400.588" y="305.352"/>
      <point x="283" y="355" type="curve" smooth="yes"/>
      <point x="168.114" y="403.68"/>
      <point x="102" y="452.428"/>
      <point x="102" y="530" type="curve" smooth="yes"/>
      <point x="102" y="599.333"/>
      <point x="162" y="655"/>
      <point x="258" y="655" type="curve" smooth="yes"/>
      <point x="327.726" y="655"/>
      <point x="367.914" y="637.041"/>
      <point x="402" y="621" type="curve"/>
      <point x="424" y="657" type="line"/>
      <point x="384" y="677"/>
      <point x="322.667" y="696"/>
      <point x="256" y="696" type="curve" smooth="yes"/>
      <point x="130.595" y="696"/>
      <point x="50" y="628.73"/>
      <point x="50" y="535" type="curve" smooth="yes"/>
      <point x="50" y="438.97"/>
      <point x="115.224" y="377.772"/>
      <point x="232" y="330" type="curve" smooth="yes"/>
      <point x="349.176" y="281.977"/>
      <point x="413" y="235.57"/>
      <point x="413" y="160" type="curve" smooth="yes"/>
      <point x="413" y="88.879"/>
      <point x="345.478" y="29"/>
      <point x="236" y="29" type="curve" smooth="yes"/>
      <point x="165.838" y="29"/>
      <point x="106.949" y="51.578"/>
      <point x="70" y="68" type="curve"/>
    </contour>
  </outline>
</glyph>
<glyph name="U" format="2">
  <advance width="658"/>
  <unicode hex="0055"/>
  <outline>
    <contour>
      <point x="139" y="680" type="line"/>
      <point x="90" y="680" type="line"/>
      <point x="90" y="239" type="line" smooth="yes"/>
      <point x="90" y="92.924"/>
      <point x="176.639" y="-12"/>
      <point x="329" y="-12" type="curve" smooth="yes"/>
      <point x="483.488" y="-12"/>
      <point x="568" y="91.711"/>
      <point x="568" y="239" type="curve" smooth="yes"/>
      <point x="568" y="680" type="line"/>
      <point x="519" y="680" type="line"/>
      <point x="519" y="236" type="line" smooth="yes"/>
      <point x="519" y="114.005"/>
      <point x="445.316" y="29"/>
      <point x="329" y="29" type="curve" smooth="yes"/>
      <point x="217.538" y="29"/>
      <point x="139" y="115.122"/>
      <point x="139" y="236" type="curve" smooth="yes"/>
    </contour>
  </outline>
</glyph>
<glyph name="a" format="2">
  <advance width="475"/>
  <unicode hex="0061"/>
  <anchor x="234" y="0" name="bottom"/>
  <anchor x="241" y="485" name="top"/>
  <outline>
    <contour>
      <point x="103" y="136" type="curve" smooth="yes"/>
      <point x="103" y="196"/>
      <point x="141" y="244"/>
      <point x="229" y="244" type="curve" smooth="yes"/>
      <point x="360" y="244" type="line"/>
      <point x="360" y="109" type="line"/>
      <point x="329.333" y="63.667"/>
      <point x="281.667" y="28"/>
      <point x="219" y="28" type="curve" smooth="yes"/>
      <point x="148.583" y="28"/>
      <point x="103" y="73.842"/>
    </contour>
    <contour>
      <point x="215" y="-13" type="curve" smooth="yes"/>
      <point x="276.333" y="-13"/>
      <point x="329.667" y="14.667"/>
      <point x="363" y="52" type="curve"/>
      <point x="371" y="0" type="line"/>
      <point x="409" y="0" type="line"/>
      <point x="409" y="340" type="line" smooth="yes"/>
      <point x="409" y="430.026"/>
      <point x="358.123" y="498"/>
      <point x="241" y="498" type="curve" smooth="yes"/>
      <point x="167.408" y="498"/>
      <point x="111.83" y="471.99"/>
      <point x="86" y="456" type="curve"/>
      <point x="105" y="423" type="line"/>
      <point x="149" y="445.667"/>
      <point x="196" y="457"/>
      <point x="244" y="457" type="curve" smooth="yes"/>
      <point x="322.667" y="457"/>
      <point x="360" y="407.667"/>
      <point x="360" y="341" type="curve" smooth="yes"/>
      <point x="360" y="281" type="line"/>
      <point x="225" y="281" type="line" smooth="yes"/>
      <point x="123.667" y="281"/>
      <point x="52" y="228"/>
      <point x="52" y="136" type="curve" smooth="yes"/>
      <point x="52" y="52"/>
      <point x="105.667" y="-13"/>
    </contour>
  </outline>
</glyph>
<glyph name="b" format="2">
  <advance width="512"/>
  <unicode hex="0062"/>
  <outline>
    <contour>
      <point x="108" y="0" type="line"/>
      <point x="129" y="59" type="line"/>
      <point x="129" y="706" type="line"/>
      <point x="80" y="696" type="line"/>
      <point x="80" y="0" type="line"/>
    </contour>
    <contour>
      <point x="256" y="-13" type="curve" smooth="yes"/>
      <point x="410" y="-13"/>
      <point x="472" y="107"/>
      <point x="472" y="240" type="curve" smooth="yes"/>
      <point x="472" y="386"/>
      <point x="410" y="498"/>
      <point x="263" y="498" type="curve" smooth="yes"/>
      <point x="197" y="498"/>
      <point x="144" y="468"/>
      <point x="104" y="420" type="curve"/>
      <point x="124" y="386" type="line"/>
      <point x="163" y="429"/>
      <point x="201" y="457"/>
      <point x="263" y="457" type="curve" smooth="yes"/>
      <point x="371" y="457"/>
      <point x="421" y="362"/>
      <point x="421" y="239" type="curve" smooth="yes"/>
      <point x="421" y="133"/>
      <point x="371" y="28"/>
      <point x="258" y="28" type="curve" smooth="yes"/>
      <point x="199" y="28"/>
      <point x="155" y="58"/>
      <point x="119" y="92" type="curve"/>
      <point x="99" y="59" type="line"/>
      <point x="125" y="33"/>
      <point x="191" y="-13"/>
    </contour>
  </outline>
</glyph>
<glyph name="c" format="2">
  <advance width="449"/>
  <unicode hex="0063"/>
  <anchor x="273" y="0" name="bottom"/>
  <anchor x="261" y="485" name="top"/>
  <outline>
    <contour>
      <point x="259" y="-13" type="curve" smooth="yes"/>
      <point x="301" y="-13"/>
      <point x="365" y="2"/>
      <point x="408" y="28" type="curve"/>
      <point x="388" y="62" type="line"/>
      <point x="350" y="43"/>
      <point x="322" y="28"/>
      <point x="259" y="28" type="curve" smooth="yes"/>
      <point x="145" y="28"/>
      <point x="91" y="133"/>
      <point x="91" y="246" type="curve" smooth="yes"/>
      <point x="91" y="351"/>
      <point x="149" y="457"/>
      <point x="264" y="457" type="curve" smooth="yes"/>
      <point x="325" y="457"/>
      <point x="361" y="438"/>
      <point x="393" y="423" type="curve"/>
      <point x="413" y="456" type="line"/>
      <point x="376" y="481"/>
      <point x="305" y="498"/>
      <point x="266" y="498" type="curve" smooth="yes"/>
      <point x="114" y="498"/>
      <point x="40" y="381"/>
      <point x="40" y="245" type="curve" smooth="yes"/>
      <point x="40" y="105"/>
      <point x="108" y="-13"/>
    </contour>
  </outline>
</glyph>
<glyph name="e" format="2">
  <advance width="480"/>
  <unicode hex="0065"/>
  <anchor x="303" y="0" name="bottom"/>
  <anchor x="252" y="485" name="top"/>
  <outline>
    <contour>
      <point x="270" y="-13" type="curve" smooth="yes"/>
      <point x="310" y="-13"/>
      <point x="385" y="1"/>
      <point x="425" y="25" type="curve"/>
      <point x="405" y="62" type="line"/>
      <point x="368" y="43"/>
      <point x="329" y="28"/>
      <point x="262" y="28" type="curve" smooth="yes"/>
      <point x="140" y="28"/>
      <point x="93" y="127"/>
      <point x="91" y="242" type="curve"/>
      <point x="440" y="242" type="line"/>
      <point x="440" y="248" type="line" smooth="yes"/>
      <point x="440" y="386"/>
      <point x="369" y="498"/>
      <point x="252" y="498" type="curve" smooth="yes"/>
      <point x="99" y="498"/>
      <point x="40" y="378"/>
      <point x="40" y="245" type="curve" smooth="yes"/>
      <point x="40" y="99"/>
      <point x="108" y="-13"/>
    </contour>
    <contour>
      <point x="388" y="279" type="curve"/>
      <point x="93" y="279" type="line"/>
      <point x="103" y="371"/>
      <point x="146" y="457"/>
      <point x="245" y="457" type="curve" smooth="yes"/>
      <point x="345" y="457"/>
      <point x="380" y="371"/>
    </contour>
  </outline>
</glyph>
<glyph name="f" format="2">
  <advance width="264"/>
  <unicode hex="0066"/>
  <outline>
    <contour>
      <point x="142" y="0" type="line"/>
      <point x="142" y="433" type="line"/>
      <point x="251" y="433" type="line"/>
      <point x="230" y="470" type="line"/>
      <point x="142" y="470" type="line"/>
      <point x="142" y="579" type="line" smooth="yes"/>
      <point x="142" y="626"/>
      <point x="159" y="661"/>
      <point x="211" y="661" type="curve" smooth="yes"/>
      <point x="225" y="661"/>
      <point x="244" y="656"/>
      <point x="252" y="652" type="curve"/>
      <point x="264" y="689" type="line"/>
      <point x="253" y="695"/>
      <point x="226" y="702"/>
      <point x="198" y="702" type="curve" smooth="yes"/>
      <point x="122" y="702"/>
      <point x="93" y="644"/>
      <point x="93" y="563" type="curve" smooth="yes"/>
      <point x="93" y="470" type="line"/>
      <point x="20" y="470" type="line"/>
      <point x="20" y="433" type="line"/>
      <point x="93" y="433" type="line"/>
      <point x="93" y="0" type="line"/>
    </contour>
  </outline>
</glyph>
<glyph name="g" format="2">
  <advance width="508"/>
  <unicode hex="0067"/>
  <anchor x="268" y="485" name="top"/>
  <outline>
    <contour>
      <point x="240" y="-230" type="curve" smooth="yes"/>
      <point x="366" y="-230"/>
      <point x="432" y="-160"/>
      <point x="432" y="-62" type="curve" smooth="yes"/>
      <point x="432" y="485" type="line"/>
      <point x="405" y="485" type="line"/>
      <point x="383" y="412" type="line"/>
      <point x="383" y="-72" type="line" smooth="yes"/>
      <point x="383" y="-157"/>
      <point x="314" y="-189"/>
      <point x="238" y="-189" type="curve" smooth="yes"/>
      <point x="184" y="-189"/>
      <point x="148" y="-178"/>
      <point x="94" y="-154" type="curve"/>
      <point x="75" y="-189" type="line"/>
      <point x="113" y="-214"/>
      <point x="200" y="-230"/>
    </contour>
    <contour>
      <point x="249" y="-13" type="curve" smooth="yes"/>
      <point x="316" y="-13"/>
      <point x="367" y="18"/>
      <point x="408" y="65" type="curve"/>
      <point x="388" y="99" type="line"/>
      <point x="349" y="56"/>
      <point x="311" y="28"/>
      <point x="249" y="28" type="curve" smooth="yes"/>
      <point x="134" y="28"/>
      <point x="91" y="135"/>
      <point x="91" y="246" type="curve" smooth="yes"/>
      <point x="91" y="352"/>
      <point x="141" y="457"/>
      <point x="254" y="457" type="curve" smooth="yes"/>
      <point x="313" y="457"/>
      <point x="357" y="427"/>
      <point x="393" y="393" type="curve"/>
      <point x="413" y="426" type="line"/>
      <point x="387" y="456"/>
      <point x="318" y="498"/>
      <point x="256" y="498" type="curve" smooth="yes"/>
      <point x="103" y="498"/>
      <point x="40" y="379"/>
      <point x="40" y="245" type="curve" smooth="yes"/>
      <point x="40" y="101"/>
      <point x="101" y="-13"/>
    </contour>
  </outline>
</glyph>
<glyph name="h" format="2">
  <advance width="510"/>
  <unicode hex="0068"/>
  <outline>
    <contour>
      <point x="444" y="0" type="line"/>
      <point x="444" y="337" type="line" smooth="yes"/>
      <point x="444" y="429"/>
      <point x="404" y="498"/>
      <point x="300" y="498" type="curve" smooth="yes"/>
      <point x="240" y="498"/>
      <point x="170" y="457"/>
      <point x="128" y="409" type="curve"/>
      <point x="129" y="359" type="line"/>
      <point x="184" y="416"/>
      <point x="246" y="457"/>
      <point x="304" y="457" type="curve" smooth="yes"/>
      <point x="381" y="457"/>
      <point x="395" y="399"/>
      <point x="395" y="337" type="curve" smooth="yes"/>
      <point x="395" y="0" type="line"/>
    </contour>
    <contour>
      <point x="129" y="0" type="line"/>
      <point x="129" y="706" type="line"/>
      <point x="80" y="696" type="line"/>
      <point x="80" y="0" type="line"/>
    </contour>
  </outline>
</glyph>
<glyph name="j" format="2">
  <advance width="206"/>
  <unicode hex="006A"/>
  <outline>
    <contour>
      <point x="101" y="600" type="curve" smooth="yes"/>
      <point x="125" y="600"/>
      <point x="140" y="618"/>
      <point x="140" y="638" type="curve" smooth="yes"/>
      <point x="140" y="660"/>
      <point x="122" y="676"/>
      <point x="101" y="676" type="curve" smooth="yes"/>
      <point x="77" y="676"/>
      <point x="63" y="658"/>
      <point x="63" y="638" type="curve" smooth="yes"/>
      <point x="63" y="616"/>
      <point x="78" y="600"/>
    </contour>
    <contour>
      <point x="18" y="-219" type="line"/>
      <point x="108" y="-189"/>
      <point x="126" y="-155"/>
      <point x="126" y="-62" type="curve" smooth="yes"/>
      <point x="126" y="485" type="line"/>
      <point x="77" y="485" type="line"/>
      <point x="77" y="-54" type="line" smooth="yes"/>
      <point x="77" y="-134"/>
      <point x="63" y="-159"/>
      <point x="0" y="-183" type="curve"/>
    </contour>
  </outline>
</glyph>
<glyph name="m" format="2">
  <advance width="776"/>
  <unicode hex="006D"/>
  <outline>
    <contour>
      <point x="419" y="0" type="line"/>
      <point x="419" y="337" type="line" smooth="yes"/>
      <point x="419" y="429"/>
      <point x="384" y="498"/>
      <point x="285" y="498" type="curve" smooth="yes"/>
      <point x="236" y="498"/>
      <point x="161" y="459"/>
      <point x="118" y="409" type="curve"/>
      <point x="108" y="485" type="line"/>
      <point x="70" y="485" type="line"/>
      <point x="70" y="0" type="line"/>
      <point x="119" y="0" type="line"/>
      <point x="119" y="359" type="line"/>
      <point x="171" y="413"/>
      <point x="233" y="457"/>
      <point x="289" y="457" type="curve" smooth="yes"/>
      <point x="352" y="457"/>
      <point x="370" y="414"/>
      <point x="370" y="337" type="curve" smooth="yes"/>
      <point x="370" y="0" type="line"/>
    </contour>
    <contour>
      <point x="710" y="0" type="line"/>
      <point x="710" y="337" type="line" smooth="yes"/>
      <point x="710" y="429"/>
      <point x="675" y="498"/>
      <point x="576" y="498" type="curve" smooth="yes"/>
      <point x="527" y="498"/>
      <point x="452" y="459"/>
      <point x="409" y="409" type="curve"/>
      <point x="410" y="359" type="line"/>
      <point x="462" y="413"/>
      <point x="524" y="457"/>
      <point x="580" y="457" type="curve" smooth="yes"/>
      <point x="643" y="457"/>
      <point x="661" y="414"/>
      <point x="661" y="337" type="curve" smooth="yes"/>
      <point x="661" y="0" type="line"/>
    </contour>
  </outline>
</glyph>
<glyph name="n" format="2">
  <advance width="500"/>
  <unicode hex="006E"/>
  <outline>
    <contour>
      <point x="434" y="0" type="line"/>
      <point x="434" y="337" type="line" smooth="yes"/>
      <point x="434" y="429"/>
      <point x="394" y="498"/>
      <point x="290" y="498" type="curve" smooth="yes"/>
      <point x="230" y="498"/>
      <point x="160" y="457"/>
      <point x="118" y="409" type="curve"/>
      <point x="108" y="485" type="line"/>
      <point x="70" y="485" type="line"/>
      <point x="70" y="0" type="line"/>
      <point x="119" y="0" type="line"/>
      <point x="119" y="359" type="line"/>
      <point x="174" y="416"/>
      <point x="236" y="457"/>
      <point x="294" y="457" type="curve" smooth="yes"/>
      <point x="371" y="457"/>
      <point x="385" y="399"/>
      <point x="385" y="337" type="curve" smooth="yes"/>
      <point x="385" y="0" type="line"/>
    </contour>
  </outline>
</glyph>
<glyph name="o" format="2">
  <advance width="523"/>
  <unicode hex="006F"/>
  <outline>
    <contour>
      <point x="259" y="-13" type="curve" smooth="yes"/>
      <point x="412" y="-13"/>
      <point x="483" y="103"/>
      <point x="483" y="240" type="curve" smooth="yes"/>
      <point x="483" y="381"/>
      <point x="416" y="498"/>
      <point x="265" y="498" type="curve" smooth="yes"/>
      <point x="109" y="498"/>
      <point x="40" y="393"/>
      <point x="40" y="245" type="curve" smooth="yes"/>
      <point x="40" y="103"/>
      <point x="109" y="-13"/>
    </contour>
    <contour>
      <point x="259" y="28" type="curve" smooth="yes"/>
      <point x="145" y="28"/>
      <point x="91" y="133"/>
      <point x="91" y="246" type="curve" smooth="yes"/>
      <point x="91" y="351"/>
      <point x="149" y="457"/>
      <point x="264" y="457" type="curve" smooth="yes"/>
      <point x="373" y="457"/>
      <point x="432" y="361"/>
      <point x="432" y="239" type="curve" smooth="yes"/>
      <point x="432" y="135"/>
      <point x="374" y="28"/>
    </contour>
  </outline>
</glyph>
<glyph name="p" format="2">
  <advance width="508"/>
  <unicode hex="0070"/>
  <outline>
    <contour>
      <point x="76" y="-219" type="line"/>
      <point x="125" y="-208" type="line"/>
      <point x="125" y="418" type="line"/>
      <point x="104" y="485" type="line"/>
      <point x="76" y="485" type="line"/>
    </contour>
    <contour>
      <point x="252" y="-13" type="curve" smooth="yes"/>
      <point x="406" y="-13"/>
      <point x="468" y="107"/>
      <point x="468" y="240" type="curve" smooth="yes"/>
      <point x="468" y="386"/>
      <point x="406" y="498"/>
      <point x="259" y="498" type="curve" smooth="yes"/>
      <point x="193" y="498"/>
      <point x="140" y="468"/>
      <point x="100" y="420" type="curve"/>
      <point x="120" y="386" type="line"/>
      <point x="159" y="429"/>
      <point x="197" y="457"/>
      <point x="259" y="457" type="curve" smooth="yes"/>
      <point x="367" y="457"/>
      <point x="417" y="362"/>
      <point x="417" y="239" type="curve" smooth="yes"/>
      <point x="417" y="133"/>
      <point x="367" y="28"/>
      <point x="254" y="28" type="curve" smooth="yes"/>
      <point x="195" y="28"/>
      <point x="151" y="58"/>
      <point x="115" y="92" type="curve"/>
      <point x="95" y="59" type="line"/>
      <point x="121" y="33"/>
      <point x="187" y="-13"/>
    </contour>
  </outline>
</glyph>
<glyph name="q" format="2">
  <advance width="508"/>
  <unicode hex="0071"/>
  <outline>
    <contour>
      <point x="383" y="-219" type="line"/>
      <point x="432" y="-208" type="line"/>
      <point x="432" y="485" type="line"/>
      <point x="405" y="485" type="line"/>
      <point x="383" y="419" type="line"/>
    </contour>
    <contour>
      <point x="249" y="-13" type="curve" smooth="yes"/>
      <point x="316" y="-13"/>
      <point x="367" y="18"/>
      <point x="408" y="65" type="curve"/>
      <point x="388" y="99" type="line"/>
      <point x="349" y="56"/>
      <point x="311" y="28"/>
      <point x="249" y="28" type="curve" smooth="yes"/>
      <point x="134" y="28"/>
      <point x="91" y="135"/>
      <point x="91" y="246" type="curve" smooth="yes"/>
      <point x="91" y="352"/>
      <point x="141" y="457"/>
      <point x="254" y="457" type="curve" smooth="yes"/>
      <point x="313" y="457"/>
      <point x="357" y="427"/>
      <point x="393" y="393" type="curve"/>
      <point x="413" y="426" type="line"/>
      <point x="387" y="456"/>
      <point x="318" y="498"/>
      <point x="256" y="498" type="curve" smooth="yes"/>
      <point x="103" y="498"/>
      <point x="40" y="379"/>
      <point x="40" y="245" type="curve" smooth="yes"/>
      <point x="40" y="101"/>
      <point x="101" y="-13"/>
    </contour>
  </outline>
</glyph>
<glyph name="r" format="2">
  <advance width="302"/>
  <unicode hex="0072"/>
  <outline>
    <contour>
      <point x="119" y="0" type="line"/>
      <point x="119" y="357" type="line"/>
      <point x="157" y="399"/>
      <point x="231" y="447"/>
      <point x="292" y="447" type="curve"/>
      <point x="275" y="485" type="line"/>
      <point x="221" y="485"/>
      <point x="149" y="436"/>
      <point x="116" y="408" type="curve"/>
      <point x="98" y="485" type="line"/>
      <point x="70" y="485" type="line"/>
      <point x="70" y="0" type="line"/>
    </contour>
  </outline>
</glyph>
<glyph name="s" format="2">
  <advance width="406"/>
  <unicode hex="0073"/>
  <outline>
    <contour>
      <point x="189" y="-13" type="curve" smooth="yes"/>
      <point x="312" y="-13"/>
      <point x="366" y="37"/>
      <point x="366" y="123" type="curve" smooth="yes"/>
      <point x="366" y="191"/>
      <point x="293" y="230"/>
      <point x="224" y="264" type="curve" smooth="yes"/>
      <point x="159" y="296"/>
      <point x="97" y="324"/>
      <point x="97" y="368" type="curve" smooth="yes"/>
      <point x="97" y="411"/>
      <point x="137" y="457"/>
      <point x="210" y="457" type="curve" smooth="yes"/>
      <point x="268" y="457"/>
      <point x="305" y="438"/>
      <point x="334" y="423" type="curve"/>
      <point x="354" y="458" type="line"/>
      <point x="322" y="482"/>
      <point x="259" y="498"/>
      <point x="217" y="498" type="curve" smooth="yes"/>
      <point x="101" y="498"/>
      <point x="50" y="435"/>
      <point x="50" y="364" type="curve" smooth="yes"/>
      <point x="50" y="301"/>
      <point x="116" y="265"/>
      <point x="182" y="233" type="curve" smooth="yes"/>
      <point x="250" y="199"/>
      <point x="319" y="170"/>
      <point x="319" y="119" type="curve" smooth="yes"/>
      <point x="319" y="65"/>
      <point x="271" y="28"/>
      <point x="191" y="28" type="curve" smooth="yes"/>
      <point x="138" y="28"/>
      <point x="99" y="49"/>
      <point x="60" y="66" type="curve"/>
      <point x="42" y="25" type="line"/>
      <point x="83" y="-1"/>
      <point x="152" y="-13"/>
    </contour>
  </outline>
</glyph>
<glyph name="t" format="2">
  <advance width="292"/>
  <unicode hex="0074"/>
  <outline>
    <contour>
      <point x="196" y="-13" type="curve" smooth="yes"/>
      <point x="223" y="-13"/>
      <point x="246" y="-6"/>
      <point x="262" y="-1" type="curve"/>
      <point x="250" y="37" type="line"/>
      <point x="244" y="34"/>
      <point x="224" y="28"/>
      <point x="209" y="28" type="curve" smooth="yes"/>
      <point x="156" y="28"/>
      <point x="141" y="79"/>
      <point x="141" y="123" type="curve" smooth="yes"/>
      <point x="141" y="433" type="line"/>
      <point x="250" y="433" type="line"/>
      <point x="229" y="470" type="line"/>
      <point x="141" y="470" type="line"/>
      <point x="141" y="623" type="line"/>
      <point x="92" y="601" type="line"/>
      <point x="92" y="470" type="line"/>
      <point x="20" y="470" type="line"/>
      <point x="20" y="433" type="line"/>
      <point x="92" y="433" type="line"/>
      <point x="92" y="116" type="line" smooth="yes"/>
      <point x="92" y="32"/>
      <point x="134" y="-13"/>
    </contour>
  </outline>
</glyph>
<glyph name="u" format="2">
  <advance width="500"/>
  <unicode hex="0075"/>
  <outline>
    <contour>
      <point x="210" y="-13" type="curve" smooth="yes"/>
      <point x="272" y="-13"/>
      <point x="342" y="28"/>
      <point x="382" y="76" type="curve"/>
      <point x="392" y="0" type="line"/>
      <point x="430" y="0" type="line"/>
      <point x="430" y="485" type="line"/>
      <point x="381" y="485" type="line"/>
      <point x="381" y="126" type="line"/>
      <point x="329" y="74"/>
      <point x="268" y="28"/>
      <point x="206" y="28" type="curve" smooth="yes"/>
      <point x="129" y="28"/>
      <point x="115" y="86"/>
      <point x="115" y="148" type="curve" smooth="yes"/>
      <point x="115" y="485" type="line"/>
      <point x="66" y="485" type="line"/>
      <point x="66" y="148" type="line" smooth="yes"/>
      <point x="66" y="61"/>
      <point x="103" y="-13"/>
    </contour>
  </outline>
</glyph>
<glyph name="y" format="2">
  <advance width="430"/>
  <unicode hex="0079"/>
  <outline>
    <contour>
      <point x="68" y="-219" type="line"/>
      <point x="133" y="-205"/>
      <point x="180" y="-168"/>
      <point x="201" y="-112" type="curve" smooth="yes"/>
      <point x="420" y="485" type="line"/>
      <point x="370" y="485" type="line"/>
      <point x="216" y="56" type="line"/>
      <point x="56" y="491" type="line"/>
      <point x="10" y="473" type="line"/>
      <point x="193" y="0" type="line"/>
      <point x="162" y="-98" type="line" smooth="yes"/>
      <point x="148" y="-143"/>
      <point x="115" y="-163"/>
      <point x="63" y="-181" type="curve"/>
    </contour>
  </outline>
</glyph>
<glyph name="braceleft" format="2">
  <advance width="265"/>
  <unicode hex="007B"/>
  <outline>
    <contour>
      <point x="129" y="307" type="curve"/>
      <point x="162.333" y="323"/>
      <point x="193" y="360.333"/>
      <point x="193" y="419" type="curve" smooth="yes"/>
      <point x="193" y="467"/>
      <point x="155" y="511"/>
      <point x="155" y="560" type="curve" smooth="yes"/>
      <point x="155" y="588"/>
      <point x="177.667" y="620"/>
      <point x="227" y="620" type="curve" smooth="yes"/>
      <point x="246" y="620" type="line"/>
      <point x="255" y="659" type="line"/>
      <point x="229" y="659" type="line" smooth="yes"/>
      <point x="145" y="659"/>
      <point x="105" y="618"/>
      <point x="105" y="554" type="curve" smooth="yes"/>
      <point x="105" y="499"/>
      <point x="141" y="465"/>
      <point x="141" y="410" type="curve" smooth="yes"/>
      <point x="141" y="360.667"/>
      <point x="103" y="326"/>
      <point x="63" y="326" type="curve" smooth="yes"/>
      <point x="30" y="326" type="line"/>
      <point x="30" y="288" type="line"/>
      <point x="63" y="288" type="line" smooth="yes"/>
      <point x="103" y="288"/>
      <point x="141" y="253.333"/>
      <point x="141" y="204" type="curve" smooth="yes"/>
      <point x="141" y="149"/>
      <point x="105" y="115"/>
      <point x="105" y="60" type="curve" smooth="yes"/>
      <point x="105" y="-4"/>
      <point x="145" y="-45"/>
      <point x="229" y="-45" type="curve" smooth="yes"/>
      <point x="255" y="-45" type="line"/>
      <point x="246" y="-6" type="line"/>
      <point x="227" y="-6" type="line" smooth="yes"/>
      <point x="177.667" y="-6"/>
      <point x="155" y="26"/>
      <point x="155" y="54" type="curve" smooth="yes"/>
      <point x="155" y="104"/>
      <point x="193" y="147"/>
      <point x="193" y="195" type="curve" smooth="yes"/>
      <point x="193" y="253.667"/>
      <point x="162.333" y="291"/>
    </contour>
  </outline>
</glyph>
<glyph name="braceright" format="2">
  <advance width="265"/>
  <unicode hex="007D"/>
  <outline>
    <contour>
      <point x="136" y="307" type="curve"/>
      <point x="102.667" y="291"/>
      <point x="72" y="253.667"/>
      <point x="72" y="195" type="curve" smooth="yes"/>
      <point x="72" y="147"/>
      <point x="110" y="104"/>
      <point x="110" y="54" type="curve" smooth="yes"/>
      <point x="110" y="26"/>
      <point x="87.333" y="-6"/>
      <point x="38" y="-6" type="curve" smooth="yes"/>
      <point x="19" y="-6" type="line"/>
      <point x="10" y="-45" type="line"/>
      <point x="36" y="-45" type="line" smooth="yes"/>
      <point x="120" y="-45"/>
      <point x="160" y="-4"/>
      <point x="160" y="60" type="curve" smooth="yes"/>
      <point x="160" y="115"/>
      <point x="124" y="149"/>
      <point x="124" y="204" type="curve" smooth="yes"/>
      <point x="124" y="253.333"/>
      <point x="162" y="288"/>
      <point x="202" y="288" type="curve" smooth="yes"/>
      <point x="235" y="288" type="line"/>
      <point x="235" y="326" type="line"/>
      <point x="202" y="326" type="line" smooth="yes"/>
      <point x="162" y="326"/>
      <point x="124" y="360.667"/>
      <point x="124" y="410" type="curve" smooth="yes"/>
      <point x="124" y="465"/>
      <point x="160" y="499"/>
      <point x="160" y="554" type="curve" smooth="yes"/>
      <point x="160" y="618"/>
      <point x="120" y="659"/>
      <point x="36" y="659" type="curve" smooth="yes"/>
      <point x="10" y="659" type="line"/>
      <point x="19" y="620" type="line"/>
      <point x="38" y="620" type="line" smooth="yes"/>
      <point x="87.333" y="620"/>
      <point x="110" y="588"/>
      <point x="110" y="560" type="curve" smooth="yes"/>
      <point x="110" y="511"/>
      <point x="72" y="467"/>
      <point x="72" y="419" type="curve" smooth="yes"/>
      <point x="72" y="360.333"/>
      <point x="102.667" y="323"/>
    </contour>
  </outline>
</glyph>
<glyph name="asciitilde" format="2">
  <advance width="374"/>
  <unicode hex="007E"/>
  <outline>
    <contour>
      <point x="30" y="215" type="curve"/>
      <point x="70" y="215" type="line"/>
      <point x="70" y="240.333"/>
      <point x="91.667" y="257"/>
      <point x="117" y="257" type="curve" smooth="yes"/>
      <point x="139.667" y="257"/>
      <point x="164" y="249"/>
      <point x="188" y="233" type="curve" smooth="yes"/>
      <point x="212" y="217"/>
      <point x="235.333" y="209"/>
      <point x="258" y="209" type="curve" smooth="yes"/>
      <point x="310.488" y="209"/>
      <point x="344" y="241.162"/>
      <point x="344" y="289" type="curve"/>
      <point x="304" y="289" type="line"/>
      <point x="304" y="263.667"/>
      <point x="282.333" y="247"/>
      <point x="257" y="247" type="curve" smooth="yes"/>
      <point x="239.667" y="247"/>
      <point x="219" y="255"/>
      <point x="195" y="271" type="curve" smooth="yes"/>
      <point x="171" y="287"/>
      <point x="145" y="295"/>
      <point x="117" y="295" type="curve" smooth="yes"/>
      <point x="63.24" y="295"/>
      <point x="30" y="263.043"/>
    </contour>
  </outline>
</glyph>
<glyph name="cent" format="2">
  <advance width="449"/>
  <unicode hex="00A2"/>
  <outline>
    <contour>
      <point x="284" y="477" type="line"/>
      <point x="284" y="605" type="line"/>
      <point x="240" y="595" type="line"/>
      <point x="240" y="477" type="line"/>
    </contour>
    <contour>
      <point x="284" y="0" type="line"/>
      <point x="240" y="0" type="line"/>
      <point x="240" y="-111" type="line"/>
      <point x="284" y="-111" type="line"/>
    </contour>
    <contour>
      <point x="388" y="62" type="line"/>
      <point x="353.333" y="44.667"/>
      <point x="325.667" y="28"/>
      <point x="259" y="28" type="curve" smooth="yes"/>
      <point x="154.698" y="28"/>
      <point x="91" y="120.115"/>
      <point x="91" y="246" type="curve" smooth="yes"/>
      <point x="91" y="367.381"/>
      <point x="161.989" y="457"/>
      <point x="264" y="457" type="curve" smooth="yes"/>
      <point x="325.333" y="457"/>
      <point x="359.667" y="439"/>
      <point x="393" y="423" type="curve"/>
      <point x="413" y="456" type="line"/>
      <point x="378.687" y="479.477"/>
      <point x="307.115" y="498"/>
      <point x="266" y="498" type="curve" smooth="yes"/>
      <point x="127.338" y="498"/>
      <point x="40" y="396.592"/>
      <point x="40" y="245" type="curve" smooth="yes"/>
      <point x="40" y="87.854"/>
      <point x="120.409" y="-13"/>
      <point x="259" y="-13" type="curve" smooth="yes"/>
      <point x="298.658" y="-13"/>
      <point x="362.689" y="0.813"/>
      <point x="408" y="28" type="curve"/>
    </contour>
  </outline>
</glyph>
<glyph name="sterling" format="2">
  <advance width="426"/>
  <unicode hex="00A3"/>
  <outline>
    <contour>
      <point x="70" y="0" type="line"/>
      <point x="416" y="0" type="line"/>
      <point x="410" y="39" type="line"/>
      <point x="148" y="39" type="line"/>
      <point x="177.333" y="64.333"/>
      <point x="182" y="97.667"/>
      <point x="182" y="143" type="curve" smooth="yes"/>
      <point x="182" y="334" type="line"/>
      <point x="344" y="334" type="line"/>
      <point x="322" y="371" type="line"/>
      <point x="182" y="371" type="line"/>
      <point x="182" y="561" type="line" smooth="yes"/>
      <point x="182" y="609"/>
      <point x="200.333" y="643"/>
      <point x="251" y="643" type="curve" smooth="yes"/>
      <point x="264.333" y="643"/>
      <point x="284" y="638"/>
      <point x="292" y="634" type="curve"/>
      <point x="304" y="671" type="line"/>
      <point x="291.627" y="677.187"/>
      <point x="265.266" y="684"/>
      <point x="238" y="684" type="curve" smooth="yes"/>
      <point x="165.87" y="684"/>
      <point x="133" y="628.9"/>
      <point x="133" y="545" type="curve" smooth="yes"/>
      <point x="133" y="371" type="line"/>
      <point x="60" y="371" type="line"/>
      <point x="62" y="334" type="line"/>
      <point x="133" y="334" type="line"/>
      <point x="133" y="122" type="line" smooth="yes"/>
      <point x="133" y="74"/>
      <point x="116" y="40.333"/>
      <point x="68" y="39" type="curve"/>
    </contour>
  </outline>
</glyph>
<glyph name="currency" format="2">
  <advance width="661"/>
  <unicode hex="00A4"/>
  <outline>
    <contour>
      <point x="59" y="-54" type="line"/>
      <point x="164" y="48" type="line"/>
      <point x="205.333" y="9.333"/>
      <point x="259.667" y="-13"/>
      <point x="325" y="-13" type="curve" smooth="yes"/>
      <point x="393" y="-13"/>
      <point x="451.667" y="11"/>
      <point x="493" y="51" type="curve"/>
      <point x="602" y="-54" type="line"/>
      <point x="631" y="-22" type="line"/>
      <point x="523" y="84" type="line"/>
      <point x="556.333" y="126.667"/>
      <point x="574" y="181.667"/>
      <point x="574" y="239" type="curve" smooth="yes"/>
      <point x="574" y="299"/>
      <point x="556.667" y="355.667"/>
      <point x="526" y="401" type="curve"/>
      <point x="631" y="505" type="line"/>
      <point x="602" y="537" type="line"/>
      <point x="497" y="435" type="line"/>
      <point x="457" y="473.667"/>
      <point x="401.667" y="498"/>
      <point x="335" y="498" type="curve" smooth="yes"/>
      <point x="267" y="498"/>
      <point x="207.667" y="474"/>
      <point x="165" y="434" type="curve"/>
      <point x="59" y="537" type="line"/>
      <point x="30" y="505" type="line"/>
      <point x="136" y="401" type="line"/>
      <point x="104" y="358.333"/>
      <point x="87" y="304.667"/>
      <point x="87" y="246" type="curve" smooth="yes"/>
      <point x="87" y="182"/>
      <point x="104.333" y="126"/>
      <point x="135" y="82" type="curve"/>
      <point x="30" y="-22" type="line"/>
    </contour>
    <contour>
      <point x="523" y="239" type="curve" smooth="yes"/>
      <point x="523" y="122.536"/>
      <point x="440.935" y="28"/>
      <point x="325" y="28" type="curve" smooth="yes"/>
      <point x="216.969" y="28"/>
      <point x="138" y="121.539"/>
      <point x="138" y="246" type="curve" smooth="yes"/>
      <point x="138" y="362.047"/>
      <point x="219.897" y="457"/>
      <point x="335" y="457" type="curve" smooth="yes"/>
      <point x="449.856" y="457"/>
      <point x="523" y="362.582"/>
    </contour>
  </outline>
</glyph>
<glyph name="section" format="2">
  <advance width="570"/>
  <unicode hex="00A7"/>
  <outline>
    <contour>
      <point x="432" y="95" type="line"/>
      <point x="496.557" y="123.244"/>
      <point x="530" y="176.539"/>
      <point x="530" y="241" type="curve" smooth="yes"/>
      <point x="530" y="332.85"/>
      <point x="466.588" y="389.352"/>
      <point x="349" y="439" type="curve" smooth="yes"/>
      <point x="234.114" y="487.68"/>
      <point x="168" y="536.428"/>
      <point x="168" y="614" type="curve" smooth="yes"/>
      <point x="168" y="683.333"/>
      <point x="228" y="739"/>
      <point x="324" y="739" type="curve" smooth="yes"/>
      <point x="393.726" y="739"/>
      <point x="433.914" y="721.041"/>
      <point x="468" y="705" type="curve"/>
      <point x="490" y="741" type="line"/>
      <point x="450" y="761"/>
      <point x="388.667" y="780"/>
      <point x="322" y="780" type="curve" smooth="yes"/>
      <point x="196.595" y="780"/>
      <point x="116" y="712.73"/>
      <point x="116" y="619" type="curve" smooth="yes"/>
      <point x="116" y="522.97"/>
      <point x="181.224" y="461.772"/>
      <point x="298" y="414" type="curve" smooth="yes"/>
      <point x="415.176" y="365.977"/>
      <point x="479" y="319.57"/>
      <point x="479" y="244" type="curve" smooth="yes"/>
      <point x="479" y="202.667"/>
      <point x="458.333" y="165"/>
      <point x="417" y="141" type="curve"/>
    </contour>
    <contour>
      <point x="55" y="-77" type="line"/>
      <point x="84.474" y="-99.924"/>
      <point x="190.128" y="-119"/>
      <point x="237" y="-119" type="curve" smooth="yes"/>
      <point x="385.926" y="-119"/>
      <point x="464" y="-48.337"/>
      <point x="464" y="51" type="curve" smooth="yes"/>
      <point x="464" y="142.85"/>
      <point x="400.588" y="199.352"/>
      <point x="283" y="249" type="curve" smooth="yes"/>
      <point x="168.114" y="297.68"/>
      <point x="102" y="346.428"/>
      <point x="102" y="424" type="curve" smooth="yes"/>
      <point x="102" y="466.667"/>
      <point x="125.667" y="506.667"/>
      <point x="167" y="528" type="curve"/>
      <point x="147" y="569" type="line"/>
      <point x="85.526" y="543.22"/>
      <point x="50" y="491.368"/>
      <point x="50" y="429" type="curve" smooth="yes"/>
      <point x="50" y="332.97"/>
      <point x="115.224" y="271.772"/>
      <point x="232" y="224" type="curve" smooth="yes"/>
      <point x="349.176" y="175.977"/>
      <point x="413" y="129.57"/>
      <point x="413" y="54" type="curve" smooth="yes"/>
      <point x="413" y="-17.121"/>
      <point x="345.478" y="-77"/>
      <point x="236" y="-77" type="curve" smooth="yes"/>
      <point x="165.838" y="-77"/>
      <point x="106.949" y="-54.422"/>
      <point x="70" y="-38" type="curve"/>
    </contour>
  </outline>
</glyph>
<glyph name="copyright" format="2">
  <advance width="787"/>
  <unicode hex="00A9"/>
  <outline>
    <contour>
      <point x="747" y="336" type="curve" smooth="yes"/>
      <point x="747" y="535.621"/>
      <point x="605.868" y="686"/>
      <point x="393" y="686" type="curve" smooth="yes"/>
      <point x="179.347" y="686"/>
      <point x="40" y="536.618"/>
      <point x="40" y="336" type="curve" smooth="yes"/>
      <point x="40" y="137.716"/>
      <point x="172.643" y="-12"/>
      <point x="393" y="-12" type="curve" smooth="yes"/>
      <point x="605.112" y="-12"/>
      <point x="747" y="137.346"/>
    </contour>
    <contour>
      <point x="87" y="337" type="curve" smooth="yes"/>
      <point x="87" y="512"/>
      <point x="205" y="648"/>
      <point x="393" y="648" type="curve" smooth="yes"/>
      <point x="581" y="648"/>
      <point x="700" y="511"/>
      <point x="700" y="337" type="curve" smooth="yes"/>
      <point x="700" y="156"/>
      <point x="574" y="25"/>
      <point x="393" y="25" type="curve" smooth="yes"/>
      <point x="207" y="25"/>
      <point x="87" y="161"/>
    </contour>
    <contour>
      <point x="406" y="120" type="curve" smooth="yes"/>
      <point x="445.052" y="120"/>
      <point x="504.135" y="137.258"/>
      <point x="533" y="162" type="curve"/>
      <point x="513" y="193" type="line"/>
      <point x="486.333" y="175.667"/>
      <point x="448" y="159"/>
      <point x="404" y="159" type="curve" smooth="yes"/>
      <point x="314.667" y="159"/>
      <point x="249" y="228"/>
      <point x="249" y="341" type="curve" smooth="yes"/>
      <point x="249" y="458"/>
      <point x="318.188" y="523"/>
      <point x="404" y="523" type="curve" smooth="yes"/>
      <point x="447.798" y="523"/>
      <point x="487.987" y="506.317"/>
      <point x="513" y="489" type="curve"/>
      <point x="533" y="520" type="line"/>
      <point x="508.648" y="542.612"/>
      <point x="449.354" y="562"/>
      <point x="406" y="562" type="curve" smooth="yes"/>
      <point x="274" y="562"/>
      <point x="200" y="467"/>
      <point x="200" y="341" type="curve" smooth="yes"/>
      <point x="200" y="190"/>
      <point x="299" y="120"/>
    </contour>
  </outline>
</glyph>
<glyph name="registered" format="2">
  <advance width="715"/>
  <unicode hex="00AE"/>
  <outline>
    <contour>
      <point x="675" y="487" type="curve" smooth="yes"/>
      <point x="675" y="652"/>
      <point x="557" y="798"/>
      <point x="358" y="798" type="curve" smooth="yes"/>
      <point x="172" y="798"/>
      <point x="40" y="669"/>
      <point x="40" y="487" type="curve" smooth="yes"/>
      <point x="40" y="316"/>
      <point x="168" y="178"/>
      <point x="358" y="178" type="curve" smooth="yes"/>
      <point x="547" y="178"/>
      <point x="675" y="314"/>
    </contour>
    <contour>
      <point x="88" y="488" type="curve" smooth="yes"/>
      <point x="88" y="650.108"/>
      <point x="198.038" y="760"/>
      <point x="358" y="760" type="curve" smooth="yes"/>
      <point x="521.818" y="760"/>
      <point x="626" y="644.411"/>
      <point x="626" y="488" type="curve" smooth="yes"/>
      <point x="626" y="336.769"/>
      <point x="522.965" y="217.012"/>
      <point x="358" y="215" type="curve" smooth="yes"/>
      <point x="196.481" y="216.97"/>
      <point x="88" y="331.369"/>
    </contour>
    <contour>
      <point x="337" y="647" type="line"/>
      <point x="395.968" y="647"/>
      <point x="437" y="635.3"/>
      <point x="437" y="571" type="curve" smooth="yes"/>
      <point x="437" y="511.228"/>
      <point x="390.08" y="494"/>
      <point x="332" y="494" type="curve" smooth="yes"/>
      <point x="297" y="494" type="line"/>
      <point x="297" y="647" type="line"/>
    </contour>
    <contour>
      <point x="505" y="304" type="line"/>
      <point x="407" y="469" type="line"/>
      <point x="444.333" y="485"/>
      <point x="480" y="521.333"/>
      <point x="480" y="572" type="curve" smooth="yes"/>
      <point x="480" y="649.45"/>
      <point x="426.568" y="680"/>
      <point x="344" y="680" type="curve" smooth="yes"/>
      <point x="257" y="680" type="line"/>
      <point x="257" y="304" type="line"/>
      <point x="297" y="304" type="line"/>
      <point x="297" y="462" type="line"/>
      <point x="339" y="462" type="line" smooth="yes"/>
      <point x="343.667" y="462"/>
      <point x="362.667" y="463"/>
      <point x="368" y="463" type="curve"/>
      <point x="458" y="304" type="line"/>
    </contour>
  </outline>
</glyph>
<glyph name="degree" format="2">
  <advance width="243"/>
  <unicode hex="00B0"/>
  <outline>
    <contour>
      <point x="116" y="702" type="curve" smooth="yes"/>
      <point x="58.134" y="702"/>
      <point x="10" y="658.653"/>
      <point x="10" y="599" type="curve" smooth="yes"/>
      <point x="10" y="537.905"/>
      <point x="57.536" y="498"/>
      <point x="116" y="498" type="curve" smooth="yes"/>
      <point x="177.905" y="498"/>
      <point x="223" y="539.643"/>
      <point x="223" y="599" type="curve" smooth="yes"/>
      <point x="223" y="656.794"/>
      <point x="177.358" y="702"/>
    </contour>
    <contour>
      <point x="120" y="529" type="curve" smooth="yes"/>
      <point x="77.333" y="529"/>
      <point x="50" y="566.667"/>
      <point x="50" y="600" type="curve" smooth="yes"/>
      <point x="50" y="633.333"/>
      <point x="74.667" y="670"/>
      <point x="116" y="670" type="curve" smooth="yes"/>
      <point x="157.333" y="670"/>
      <point x="184" y="633.333"/>
      <point x="184" y="600" type="curve" smooth="yes"/>
      <point x="184" y="566.667"/>
      <point x="164" y="529"/>
    </contour>
  </outline>
</glyph>
<glyph name="mu" format="2">
  <advance width="510"/>
  <unicode hex="00B5"/>
  <outline>
    <contour>
      <point x="125" y="-208" type="line"/>
      <point x="125" y="418" type="line"/>
      <point x="76" y="398" type="line"/>
      <point x="76" y="-219" type="line"/>
    </contour>
    <contour>
      <point x="391" y="485" type="line"/>
      <point x="391" y="126" type="line"/>
      <point x="332.653" y="67.653"/>
      <point x="273.316" y="28"/>
      <point x="216" y="28" type="curve" smooth="yes"/>
      <point x="142.667" y="28"/>
      <point x="125" y="81.333"/>
      <point x="125" y="148" type="curve" smooth="yes"/>
      <point x="125" y="485" type="line"/>
      <point x="76" y="485" type="line"/>
      <point x="76" y="148" type="line" smooth="yes"/>
      <point x="76" y="51.121"/>
      <point x="119.531" y="-13"/>
      <point x="220" y="-13" type="curve" smooth="yes"/>
      <point x="276.892" y="-13"/>
      <point x="348.012" y="23.215"/>
      <point x="392" y="76" type="curve"/>
      <point x="402" y="0" type="line"/>
      <point x="440" y="0" type="line"/>
      <point x="440" y="485" type="line"/>
    </contour>
  </outline>
</glyph>
<glyph name="paragraph" format="2">
  <advance width="808"/>
  <unicode hex="00B6"/>
  <outline>
    <contour>
      <point x="383" y="0" type="line"/>
      <point x="383" y="641" type="line"/>
      <point x="607" y="641" type="line"/>
      <point x="607" y="0" type="line"/>
      <point x="656" y="0" type="line"/>
      <point x="656" y="641" type="line"/>
      <point x="768" y="641" type="line"/>
      <point x="768" y="680" type="line"/>
      <point x="285" y="680" type="line" smooth="yes"/>
      <point x="136.145" y="680"/>
      <point x="40" y="610.414"/>
      <point x="40" y="475" type="curve" smooth="yes"/>
      <point x="40" y="338.197"/>
      <point x="151.878" y="264"/>
      <point x="296" y="264" type="curve" smooth="yes"/>
      <point x="334" y="264" type="line"/>
      <point x="334" y="0" type="line"/>
    </contour>
  </outline>
</glyph>
<glyph name="periodcentered" format="2">
  <advance width="137"/>
  <unicode hex="00B7"/>
  <outline>
    <contour>
      <point x="68" y="224" type="curve" smooth="yes"/>
      <point x="89.333" y="224"/>
      <point x="107" y="240.667"/>
      <point x="107" y="262" type="curve" smooth="yes"/>
      <point x="107" y="283.333"/>
      <point x="89.333" y="300"/>
      <point x="68" y="300" type="curve" smooth="yes"/>
      <point x="45.333" y="300"/>
      <point x="30" y="283.333"/>
      <point x="30" y="262" type="curve" smooth="yes"/>
      <point x="30" y="240.667"/>
      <point x="45.333" y="224"/>
    </contour>
  </outline>
</glyph>
<glyph name="cedilla" format="2">
  <advance width="206"/>
  <unicode hex="00B8"/>
  <outline>
    <contour>
      <point x="55" y="-77" type="line"/>
      <point x="113.875" y="-77"/>
      <point x="154" y="-107.611"/>
      <point x="154" y="-138" type="curve" smooth="yes"/>
      <point x="154" y="-163.333"/>
      <point x="125.333" y="-185"/>
      <point x="84" y="-185" type="curve" smooth="yes"/>
      <point x="62.667" y="-185"/>
      <point x="37" y="-176.333"/>
      <point x="25" y="-171" type="curve"/>
      <point x="10" y="-202" type="line"/>
      <point x="27.333" y="-212.667"/>
      <point x="63" y="-221"/>
      <point x="87" y="-221" type="curve" smooth="yes"/>
      <point x="154.531" y="-221"/>
      <point x="196" y="-185.512"/>
      <point x="196" y="-136" type="curve" smooth="yes"/>
      <point x="196" y="-98.053"/>
      <point x="162.557" y="-60.593"/>
      <point x="105" y="-51" type="curve"/>
      <point x="130" y="13" type="line"/>
      <point x="89" y="13" type="line"/>
    </contour>
  </outline>
</glyph>
<glyph name="questiondown" format="2">
  <advance width="392"/>
  <unicode hex="00BF"/>
  <outline>
    <contour>
      <point x="238" y="546" type="curve" smooth="yes"/>
      <point x="260.667" y="546"/>
      <point x="276" y="562.667"/>
      <point x="276" y="584" type="curve" smooth="yes"/>
      <point x="276" y="605.333"/>
      <point x="260.667" y="622"/>
      <point x="238" y="622" type="curve" smooth="yes"/>
      <point x="216.667" y="622"/>
      <point x="199" y="605.333"/>
      <point x="199" y="584" type="curve" smooth="yes"/>
      <point x="199" y="562.667"/>
      <point x="216.667" y="546"/>
    </contour>
    <contour>
      <point x="206" y="-80" type="curve" smooth="yes"/>
      <point x="284.667" y="-80"/>
      <point x="347.333" y="-49.667"/>
      <point x="382" y="-19" type="curve"/>
      <point x="374" y="22" type="line"/>
      <point x="322" y="-15.333"/>
      <point x="280" y="-39"/>
      <point x="208" y="-39" type="curve" smooth="yes"/>
      <point x="132" y="-39"/>
      <point x="83" y="5"/>
      <point x="83" y="85" type="curve" smooth="yes"/>
      <point x="83" y="161"/>
      <point x="149" y="225.667"/>
      <point x="253" y="259" type="curve"/>
      <point x="246" y="464" type="line"/>
      <point x="213" y="485" type="line"/>
      <point x="203" y="290" type="line"/>
      <point x="95.738" y="243.195"/>
      <point x="30" y="161.935"/>
      <point x="30" y="84" type="curve" smooth="yes"/>
      <point x="30" y="-14.26"/>
      <point x="88.985" y="-80"/>
    </contour>
  </outline>
</glyph>
<glyph name="germandbls" format="2">
  <advance width="544"/>
  <unicode hex="00DF"/>
  <outline>
    <contour>
      <point x="243" y="0" type="line" smooth="yes"/>
      <point x="359" y="0"/>
      <point x="499" y="28"/>
      <point x="499" y="188" type="curve" smooth="yes"/>
      <point x="499" y="279"/>
      <point x="437" y="337"/>
      <point x="369" y="356" type="curve"/>
      <point x="431" y="383"/>
      <point x="465" y="433"/>
      <point x="465" y="503" type="curve" smooth="yes"/>
      <point x="465" y="625"/>
      <point x="374" y="680"/>
      <point x="276" y="680" type="curve" smooth="yes"/>
      <point x="152" y="680"/>
      <point x="80" y="604"/>
      <point x="80" y="473" type="curve" smooth="yes"/>
      <point x="80" y="0" type="line"/>
      <point x="130" y="0" type="line"/>
      <point x="130" y="473" type="line" smooth="yes"/>
      <point x="130" y="557"/>
      <point x="173" y="639"/>
      <point x="279" y="639" type="curve" smooth="yes"/>
      <point x="346" y="639"/>
      <point x="413" y="596"/>
      <point x="413" y="502" type="curve" smooth="yes"/>
      <point x="413" y="397"/>
      <point x="350" y="372"/>
      <point x="286" y="372" type="curve" smooth="yes"/>
      <point x="221" y="372" type="line"/>
      <point x="221" y="333" type="line"/>
      <point x="290" y="333" type="line" smooth="yes"/>
      <point x="359" y="333"/>
      <point x="447" y="312"/>
      <point x="447" y="186" type="curve" smooth="yes"/>
      <point x="447" y="54"/>
      <point x="337" y="39"/>
      <point x="271" y="39" type="curve" smooth="yes"/>
      <point x="205" y="39" type="line"/>
      <point x="205" y="0" type="line"/>
    </contour>
  </outline>
</glyph>
<glyph name="ae" format="2">
  <advance width="795"/>
  <unicode hex="00E6"/>
  <outline>
    <contour>
      <point x="585" y="-13" type="curve" smooth="yes"/>
      <point x="625" y="-13"/>
      <point x="700" y="1"/>
      <point x="740" y="25" type="curve"/>
      <point x="720" y="62" type="line"/>
      <point x="683" y="43"/>
      <point x="644" y="28"/>
      <point x="577" y="28" type="curve" smooth="yes"/>
      <point x="455" y="28"/>
      <point x="408" y="127"/>
      <point x="406" y="242" type="curve"/>
      <point x="755" y="242" type="line"/>
      <point x="755" y="252" type="line" smooth="yes"/>
      <point x="755" y="388"/>
      <point x="684" y="498"/>
      <point x="567" y="498" type="curve" smooth="yes"/>
      <point x="486" y="498"/>
      <point x="430" y="464"/>
      <point x="396" y="410" type="curve"/>
      <point x="376" y="462"/>
      <point x="326" y="498"/>
      <point x="241" y="498" type="curve" smooth="yes"/>
      <point x="192" y="498"/>
      <point x="128" y="482"/>
      <point x="86" y="456" type="curve"/>
      <point x="105" y="423" type="line"/>
      <point x="147" y="442"/>
      <point x="193" y="457"/>
      <point x="244" y="457" type="curve" smooth="yes"/>
      <point x="327" y="457"/>
      <point x="360" y="404"/>
      <point x="360" y="341" type="curve" smooth="yes"/>
      <point x="360" y="281" type="line"/>
      <point x="225" y="281" type="line" smooth="yes"/>
      <point x="131" y="281"/>
      <point x="52" y="234"/>
      <point x="52" y="136" type="curve"/>
      <point x="52" y="57"/>
      <point x="99" y="-13"/>
      <point x="215" y="-13" type="curve" smooth="yes"/>
      <point x="307" y="-13"/>
      <point x="359" y="21"/>
      <point x="396" y="79" type="curve"/>
      <point x="433" y="22"/>
      <point x="494" y="-13"/>
    </contour>
    <contour>
      <point x="703" y="279" type="curve"/>
      <point x="408" y="279" type="line"/>
      <point x="418" y="371"/>
      <point x="461" y="457"/>
      <point x="560" y="457" type="curve" smooth="yes"/>
      <point x="660" y="457"/>
      <point x="695" y="371"/>
    </contour>
    <contour>
      <point x="219" y="28" type="curve" smooth="yes"/>
      <point x="141" y="28"/>
      <point x="103" y="81"/>
      <point x="103" y="136" type="curve"/>
      <point x="103" y="188"/>
      <point x="133" y="244"/>
      <point x="214" y="244" type="curve" smooth="yes"/>
      <point x="360" y="244" type="line"/>
      <point x="360" y="201"/>
      <point x="363" y="158"/>
      <point x="376" y="120" type="curve"/>
      <point x="346" y="70"/>
      <point x="299" y="28"/>
    </contour>
  </outline>
</glyph>
<glyph name="divide" format="2">
  <advance width="497"/>
  <unicode hex="00F7"/>
  <outline>
    <contour>
      <point x="248" y="377" type="curve" smooth="yes"/>
      <point x="269.333" y="377"/>
      <point x="287" y="393.667"/>
      <point x="287" y="415" type="curve" smooth="yes"/>
      <point x="287" y="436.333"/>
      <point x="269.333" y="453"/>
      <point x="248" y="453" type="curve" smooth="yes"/>
      <point x="225.333" y="453"/>
      <point x="210" y="436.333"/>
      <point x="210" y="415" type="curve" smooth="yes"/>
      <point x="210" y="393.667"/>
      <point x="225.333" y="377"/>
    </contour>
    <contour>
      <point x="457" y="292" type="line"/>
      <point x="30" y="292" type="line"/>
      <point x="38" y="255" type="line"/>
      <point x="467" y="255" type="line"/>
    </contour>
    <contour>
      <point x="251" y="74" type="curve" smooth="yes"/>
      <point x="272.333" y="74"/>
      <point x="290" y="90.667"/>
      <point x="290" y="112" type="curve" smooth="yes"/>
      <point x="290" y="133.333"/>
      <point x="272.333" y="150"/>
      <point x="251" y="150" type="curve" smooth="yes"/>
      <point x="228.333" y="150"/>
      <point x="213" y="133.333"/>
      <point x="213" y="112" type="curve" smooth="yes"/>
      <point x="213" y="90.667"/>
      <point x="228.333" y="74"/>
    </contour>
  </outline>
</glyph>
<glyph name="thorn" format="2">
  <advance width="508"/>
  <unicode hex="00FE"/>
  <outline>
    <contour>
      <point x="76" y="-219" type="line"/>
      <point x="125" y="-208" type="line"/>
      <point x="125" y="33" type="line"/>
      <point x="156" y="12"/>
      <point x="204" y="-13"/>
      <point x="252" y="-13" type="curve" smooth="yes"/>
      <point x="406" y="-13"/>
      <point x="468" y="107"/>
      <point x="468" y="240" type="curve" smooth="yes"/>
      <point x="468" y="386"/>
      <point x="406" y="498"/>
      <point x="259" y="498" type="curve" smooth="yes"/>
      <point x="205" y="498"/>
      <point x="161" y="478"/>
      <point x="125" y="446" type="curve"/>
      <point x="125" y="706" type="line"/>
      <point x="76" y="696" type="line"/>
    </contour>
    <contour>
      <point x="254" y="28" type="curve" smooth="yes"/>
      <point x="197" y="28"/>
      <point x="155" y="56"/>
      <point x="125" y="83" type="curve"/>
      <point x="125" y="392" type="line"/>
      <point x="161" y="431"/>
      <point x="198" y="457"/>
      <point x="259" y="457" type="curve" smooth="yes"/>
      <point x="367" y="457"/>
      <point x="417" y="362"/>
      <point x="417" y="239" type="curve" smooth="yes"/>
      <point x="417" y="133"/>
      <point x="367" y="28"/>
    </contour>
  </outline>
</glyph>
<glyph name="Aogonek" format="2">
  <advance width="572"/>
  <unicode hex="0104"/>
  <outline>
    <contour>
      <point x="522" y="9" type="line"/>
      <point x="483.658" y="-20.822"/>
      <point x="460" y="-70.834"/>
      <point x="460" y="-106" type="curve" smooth="yes"/>
      <point x="460" y="-160.938"/>
      <point x="503.143" y="-202"/>
      <point x="565" y="-202" type="curve" smooth="yes"/>
      <point x="598.68" y="-202"/>
      <point x="628.924" y="-188.076"/>
      <point x="645" y="-172" type="curve"/>
      <point x="623" y="-145" type="line"/>
      <point x="607" y="-158.333"/>
      <point x="589.333" y="-166"/>
      <point x="568" y="-166" type="curve" smooth="yes"/>
      <point x="542.667" y="-166"/>
      <point x="506" y="-147"/>
      <point x="506" y="-107" type="curve" smooth="yes"/>
      <point x="506" y="-62.685"/>
      <point x="526.181" y="-26.839"/>
      <point x="562" y="5" type="curve"/>
    </contour>
    <contour>
      <point x="417" y="252" type="line"/>
      <point x="150" y="252" type="line"/>
      <point x="281" y="614" type="line"/>
    </contour>
    <contour>
      <point x="257" y="680" type="line"/>
      <point x="10" y="0" type="line"/>
      <point x="59" y="0" type="line"/>
      <point x="136" y="213" type="line"/>
      <point x="431" y="213" type="line"/>
      <point x="512" y="-6" type="line"/>
      <point x="562" y="5" type="line"/>
      <point x="303" y="680" type="line"/>
    </contour>
  </outline>
</glyph>
<glyph name="oe" format="2">
  <advance width="758"/>
  <unicode hex="0153"/>
  <outline>
    <contour>
      <point x="548" y="-13" type="curve" smooth="yes"/>
      <point x="588" y="-13"/>
      <point x="663" y="1"/>
      <point x="703" y="25" type="curve"/>
      <point x="683" y="62" type="line"/>
      <point x="646" y="43"/>
      <point x="607" y="28"/>
      <point x="540" y="28" type="curve" smooth="yes"/>
      <point x="418" y="28"/>
      <point x="371" y="127"/>
      <point x="369" y="242" type="curve"/>
      <point x="718" y="242" type="line"/>
      <point x="718" y="247" type="line"/>
      <point x="718" y="389"/>
      <point x="644" y="498"/>
      <point x="530" y="498" type="curve" smooth="yes"/>
      <point x="478" y="498"/>
      <point x="437" y="483"/>
      <point x="406" y="461" type="curve"/>
      <point x="367" y="483"/>
      <point x="322" y="498"/>
      <point x="266" y="498" type="curve" smooth="yes"/>
      <point x="114" y="498"/>
      <point x="40" y="381"/>
      <point x="40" y="245" type="curve" smooth="yes"/>
      <point x="40" y="105"/>
      <point x="108" y="-13"/>
      <point x="259" y="-13" type="curve" smooth="yes"/>
      <point x="323" y="-13"/>
      <point x="367" y="3"/>
      <point x="407" y="27" type="curve"/>
      <point x="445" y="0"/>
      <point x="492" y="-13"/>
    </contour>
    <contour>
      <point x="666" y="279" type="curve"/>
      <point x="371" y="279" type="line"/>
      <point x="381" y="371"/>
      <point x="424" y="457"/>
      <point x="523" y="457" type="curve" smooth="yes"/>
      <point x="623" y="457"/>
      <point x="658" y="371"/>
    </contour>
    <contour>
      <point x="259" y="28" type="curve" smooth="yes"/>
      <point x="145" y="28"/>
      <point x="91" y="133"/>
      <point x="91" y="246" type="curve" smooth="yes"/>
      <point x="91" y="351"/>
      <point x="149" y="457"/>
      <point x="264" y="457" type="curve" smooth="yes"/>
      <point x="312" y="457"/>
      <point x="345" y="446"/>
      <point x="375" y="432" type="curve"/>
      <point x="336" y="384"/>
      <point x="318" y="317"/>
      <point x="318" y="245" type="curve" smooth="yes"/>
      <point x="318" y="172"/>
      <point x="335" y="105"/>
      <point x="376" y="56" type="curve"/>
      <point x="344" y="40"/>
      <point x="315" y="28"/>
    </contour>
  </outline>
</glyph>
<glyph name="breve" format="2">
  <advance width="280"/>
  <unicode hex="02D8"/>
  <anchor x="140" y="485" name="_top"/>
  <outline>
    <contour>
      <point x="140" y="601" type="curve" smooth="yes"/>
      <point x="229.913" y="601"/>
      <point x="270" y="666.28"/>
      <point x="270" y="731" type="curve"/>
      <point x="229" y="731" type="line"/>
      <point x="229" y="681.667"/>
      <point x="196" y="640"/>
      <point x="140" y="640" type="curve" smooth="yes"/>
      <point x="84" y="640"/>
      <point x="51" y="684.333"/>
      <point x="51" y="731" type="curve"/>
      <point x="10" y="731" type="line"/>
      <point x="10" y="666.601"/>
      <point x="52.901" y="601"/>
    </contour>
  </outline>
</glyph>
<glyph name="ogonek" format="2">
  <advance width="205"/>
  <unicode hex="02DB"/>
  <outline>
    <contour>
      <point x="72" y="4" type="line"/>
      <point x="33.916" y="-27.737"/>
      <point x="10" y="-73.889"/>
      <point x="10" y="-111" type="curve" smooth="yes"/>
      <point x="10" y="-165.938"/>
      <point x="53.143" y="-207"/>
      <point x="115" y="-207" type="curve" smooth="yes"/>
      <point x="148.333" y="-207"/>
      <point x="177.667" y="-194.333"/>
      <point x="195" y="-177" type="curve"/>
      <point x="173" y="-150" type="line"/>
      <point x="157" y="-163.333"/>
      <point x="139.333" y="-171"/>
      <point x="118" y="-171" type="curve" smooth="yes"/>
      <point x="92.667" y="-171"/>
      <point x="56" y="-152"/>
      <point x="56" y="-112" type="curve" smooth="yes"/>
      <point x="56" y="-67.859"/>
      <point x="73.901" y="-31.199"/>
      <point x="109" y="0" type="curve"/>
    </contour>
  </outline>
</glyph>
<glyph name="tilde" format="2">
  <advance width="299"/>
  <unicode hex="02DC"/>
  <anchor x="150" y="485" name="_top"/>
  <outline>
    <contour>
      <point x="251" y="699" type="line"/>
      <point x="248.333" y="668.333"/>
      <point x="234" y="646"/>
      <point x="206" y="646" type="curve" smooth="yes"/>
      <point x="188.667" y="646"/>
      <point x="172.667" y="656.333"/>
      <point x="158" y="675" type="curve" smooth="yes"/>
      <point x="143.333" y="693.667"/>
      <point x="121" y="703"/>
      <point x="93" y="703" type="curve" smooth="yes"/>
      <point x="52.965" y="703"/>
      <point x="10" y="679.519"/>
      <point x="10" y="612" type="curve"/>
      <point x="49" y="612" type="line"/>
      <point x="51.667" y="642.667"/>
      <point x="64.667" y="665"/>
      <point x="94" y="665" type="curve" smooth="yes"/>
      <point x="111.333" y="665"/>
      <point x="128.667" y="655.667"/>
      <point x="146" y="637" type="curve" smooth="yes"/>
      <point x="163.333" y="618.333"/>
      <point x="183.333" y="608"/>
      <point x="206" y="608" type="curve" smooth="yes"/>
      <point x="253.716" y="608"/>
      <point x="289" y="638.965"/>
      <point x="289" y="699" type="curve"/>
    </contour>
  </outline>
</glyph>
<glyph name="gravecomb" format="2">
  <unicode hex="0300"/>
  <anchor x="111" y="485" name="_top"/>
  <outline>
    <contour>
      <point x="95" y="589" type="line"/>
      <point x="127" y="600" type="line"/>
      <point x="71" y="742" type="line"/>
      <point x="10" y="742" type="line"/>
    </contour>
  </outline>
</glyph>
<glyph name="acutecomb" format="2">
  <unicode hex="0301"/>
  <anchor x="27" y="485" name="_top"/>
  <outline>
    <contour>
      <point x="42" y="589" type="line"/>
      <point x="127" y="742" type="line"/>
      <point x="66" y="742" type="line"/>
      <point x="10" y="600" type="line"/>
    </contour>
  </outline>
</glyph>
<glyph name="macroncomb" format="2">
  <unicode hex="0304"/>
  <outline>
    <contour>
      <point x="10" y="650" type="line"/>
      <point x="251" y="650" type="line"/>
      <point x="245" y="689" type="line"/>
      <point x="10" y="689" type="line"/>
    </contour>
  </outline>
</glyph>
<glyph name="dieresiscomb" format="2">
  <unicode hex="0308"/>
  <anchor x="127" y="485" name="_top"/>
  <outline>
    <contour>
      <point x="47" y="618" type="curve" smooth="yes"/>
      <point x="67" y="618"/>
      <point x="84" y="633.667"/>
      <point x="84" y="655" type="curve" smooth="yes"/>
      <point x="84" y="676.333"/>
      <point x="67" y="691"/>
      <point x="47" y="691" type="curve" smooth="yes"/>
      <point x="24.333" y="691"/>
      <point x="10" y="676.333"/>
      <point x="10" y="655" type="curve" smooth="yes"/>
      <point x="10" y="633.667"/>
      <point x="24.333" y="618"/>
    </contour>
    <contour>
      <point x="206" y="618" type="curve" smooth="yes"/>
      <point x="226" y="618"/>
      <point x="243" y="633.667"/>
      <point x="243" y="655" type="curve" smooth="yes"/>
      <point x="243" y="676.333"/>
      <point x="226" y="691"/>
      <point x="206" y="691" type="curve" smooth="yes"/>
      <point x="183.333" y="691"/>
      <point x="169" y="676.333"/>
      <point x="169" y="655" type="curve" smooth="yes"/>
      <point x="169" y="633.667"/>
      <point x="183.333" y="618"/>
    </contour>
  </outline>
</glyph>
<glyph name="ringcomb" format="2">
  <unicode hex="030A"/>
  <anchor x="99" y="485" name="_top"/>
  <outline>
    <contour>
      <point x="99" y="759" type="curve" smooth="yes"/>
      <point x="48.861" y="759"/>
      <point x="10" y="720.977"/>
      <point x="10" y="675" type="curve" smooth="yes"/>
      <point x="10" y="628.333"/>
      <point x="51" y="594"/>
      <point x="99" y="594" type="curve" smooth="yes"/>
      <point x="147.426" y="594"/>
      <point x="187" y="628.158"/>
      <point x="187" y="675" type="curve" smooth="yes"/>
      <point x="187" y="723.23"/>
      <point x="147.567" y="759"/>
    </contour>
    <contour>
      <point x="99" y="624" type="curve" smooth="yes"/>
      <point x="69.667" y="624"/>
      <point x="49" y="645.667"/>
      <point x="49" y="675" type="curve" smooth="yes"/>
      <point x="49" y="705.667"/>
      <point x="69.667" y="728"/>
      <point x="99" y="728" type="curve" smooth="yes"/>
      <point x="128.333" y="728"/>
      <point x="148" y="705.667"/>
      <point x="148" y="675" type="curve" smooth="yes"/>
      <point x="148" y="645.667"/>
      <point x="128.333" y="624"/>
    </contour>
  </outline>
</glyph>
<glyph name="hungarumlautcomb" format="2">
  <unicode hex="030B"/>
  <anchor x="107" y="680" name="_top"/>
  <outline>
    <contour>
      <point x="42" y="739" type="line"/>
      <point x="127" y="892" type="line"/>
      <point x="66" y="892" type="line"/>
      <point x="10" y="750" type="line"/>
    </contour>
    <contour>
      <point x="170" y="739" type="line"/>
      <point x="255" y="892" type="line"/>
      <point x="194" y="892" type="line"/>
      <point x="138" y="750" type="line"/>
    </contour>
  </outline>
</glyph>
<glyph name="ogonekcomb" format="2">
  <unicode hex="0328"/>
  <anchor x="109" y="14" name="_ogonek"/>
  <outline>
    <contour>
      <point x="72" y="4" type="line"/>
      <point x="33.916" y="-27.737"/>
      <point x="10" y="-73.889"/>
      <point x="10" y="-111" type="curve" smooth="yes"/>
      <point x="10" y="-165.938"/>
      <point x="53.143" y="-207"/>
      <point x="115" y="-207" type="curve" smooth="yes"/>
      <point x="148.333" y="-207"/>
      <point x="177.667" y="-194.333"/>
      <point x="195" y="-177" type="curve"/>
      <point x="173" y="-150" type="line"/>
      <point x="157" y="-163.333"/>
      <point x="139.333" y="-171"/>
      <point x="118" y="-171" type="curve" smooth="yes"/>
      <point x="92.667" y="-171"/>
      <point x="56" y="-152"/>
      <point x="56" y="-112" type="curve" smooth="yes"/>
      <point x="56" y="-67.859"/>
      <point x="73.901" y="-31.199"/>
      <point x="109" y="0" type="curve"/>
    </contour>
  </outline>
</glyph>
<glyph name="segolcomb-hebr" format="2">
  <unicode hex="05B6"/>
  <anchor x="0" y="0" name="Anchor_1"/>
  <anchor x="115" y="0" name="Bottom-liga"/>
  <anchor x="118" y="0" name="bottom-hebr"/>
  <outline>
    <contour>
      <point x="-54" y="-134" type="curve" smooth="yes"/>
      <point x="-68.667" y="-134"/>
      <point x="-82" y="-121"/>
      <point x="-82" y="-105" type="curve" smooth="yes"/>
      <point x="-82" y="-89"/>
      <point x="-72.667" y="-79.667"/>
      <point x="-54" y="-77" type="curve"/>
      <point x="-38" y="-77"/>
      <point x="-25" y="-89"/>
      <point x="-25" y="-105" type="curve" smooth="yes"/>
      <point x="-25" y="-121"/>
      <point x="-34" y="-134"/>
    </contour>
    <contour>
      <point x="54" y="-134" type="curve" smooth="yes"/>
      <point x="38" y="-134"/>
      <point x="28.667" y="-124.333"/>
      <point x="26" y="-105" type="curve"/>
      <point x="26" y="-90.333"/>
      <point x="38" y="-77"/>
      <point x="54" y="-77" type="curve" smooth="yes"/>
      <point x="70" y="-77"/>
      <point x="83" y="-89"/>
      <point x="83" y="-105" type="curve" smooth="yes"/>
      <point x="83" y="-121"/>
      <point x="74" y="-134"/>
    </contour>
    <contour>
      <point x="-1" y="-236" type="curve" smooth="yes"/>
      <point x="-15.667" y="-236"/>
      <point x="-29" y="-223"/>
      <point x="-29" y="-207" type="curve" smooth="yes"/>
      <point x="-29" y="-192.333"/>
      <point x="-17" y="-179"/>
      <point x="-1" y="-179" type="curve" smooth="yes"/>
      <point x="15.667" y="-179"/>
      <point x="25.333" y="-188.333"/>
      <point x="28" y="-207" type="curve"/>
      <point x="28" y="-223"/>
      <point x="19" y="-236"/>
    </contour>
  </outline>
</glyph>
<glyph name="metegcomb-hebr" format="2">
  <unicode hex="05BD"/>
  <anchor x="0" y="0" name="Anchor_1"/>
  <outline>
    <contour>
      <point x="-23" y="-48" type="line"/>
      <point x="-23" y="-254" type="line"/>
      <point x="27" y="-254" type="line"/>
      <point x="27" y="-48" type="line"/>
    </contour>
  </outline>
</glyph>
<glyph name="maqaf-hebr" format="2">
  <advance width="262"/>
  <unicode hex="05BE"/>
  <anchor x="0" y="0" name="Anchor_1"/>
  <outline>
    <contour>
      <point x="229" y="546" type="line"/>
      <point x="29" y="546" type="line"/>
      <point x="37" y="589" type="line"/>
      <point x="239" y="589" type="line"/>
    </contour>
  </outline>
</glyph>
<glyph name="rafecomb-hebr" format="2">
  <unicode hex="05BF"/>
  <anchor x="0" y="0" name="Anchor_1"/>
  <anchor x="0" y="0" name="Bottom-liga"/>
  <anchor x="126" y="386" name="top - liga"/>
  <anchor x="126" y="386" name="top-hebr"/>
  <outline>
    <contour>
      <point x="212" y="527" type="line"/>
      <point x="37" y="527" type="line"/>
      <point x="37" y="569" type="line"/>
      <point x="212" y="569" type="line"/>
    </contour>
  </outline>
</glyph>
<glyph name="sindotcomb-hebr" format="2">
  <unicode hex="05C2"/>
  <anchor x="0" y="0" name="Anchor_1"/>
  <anchor x="0" y="0" name="Bottom-liga"/>
  <anchor x="0" y="0" name="shin - liga"/>
  <anchor x="0" y="0" name="sin"/>
  <anchor x="0" y="0" name="sin - liga"/>
  <anchor x="64" y="400" name="topleft-hebr"/>
  <anchor x="64" y="400" name="topright2-hebr"/>
  <outline>
    <contour>
      <point x="0" y="692" type="curve" smooth="yes"/>
      <point x="14.667" y="692"/>
      <point x="27" y="679.667"/>
      <point x="27" y="665" type="curve" smooth="yes"/>
      <point x="27" y="649"/>
      <point x="14.667" y="637"/>
      <point x="0" y="637" type="curve" smooth="yes"/>
      <point x="-16" y="637"/>
      <point x="-28" y="649"/>
      <point x="-28" y="665" type="curve" smooth="yes"/>
      <point x="-28" y="679.667"/>
      <point x="-16" y="692"/>
    </contour>
  </outline>
</glyph>
<glyph name="punctuationsofpasuq-hebr" format="2">
  <advance width="254"/>
  <unicode hex="05C3"/>
  <outline>
    <contour>
      <point x="159" y="415" type="line"/>
      <point x="84" y="415" type="line"/>
      <point x="84" y="506" type="line"/>
      <point x="159" y="506" type="line"/>
    </contour>
    <contour>
      <point x="159" y="1" type="line"/>
      <point x="84" y="1" type="line"/>
      <point x="84" y="92" type="line"/>
      <point x="159" y="92" type="line"/>
    </contour>
  </outline>
</glyph>
<glyph name="qamatsqatancomb-hebr" format="2">
  <unicode hex="05C7"/>
  <anchor x="0" y="0" name="Anchor_1"/>
  <anchor x="80" y="0" name="Bottom-liga"/>
  <anchor x="81" y="0" name="bottom-hebr"/>
  <outline>
    <contour>
      <point x="13" y="-199" type="curve"/>
      <point x="-13" y="-199" type="line"/>
      <point x="-13" y="-179.138"/>
      <point x="-12.819" y="-167.369"/>
      <point x="-10.5" y="-155" type="curve" smooth="yes"/>
      <point x="-9.5" y="-149.667"/>
      <point x="-7.333" y="-135.333"/>
      <point x="-4" y="-112" type="curve"/>
      <point x="-49" y="-112" type="line"/>
      <point x="-49" y="-81" type="line"/>
      <point x="48" y="-81" type="line"/>
      <point x="48" y="-112" type="line"/>
      <point x="6" y="-112" type="line"/>
      <point x="8.648" y="-140.244"/>
      <point x="11.924" y="-161.937"/>
      <point x="12.5" y="-170" type="curve" smooth="yes"/>
      <point x="12.833" y="-174.667"/>
      <point x="13" y="-184.333"/>
    </contour>
  </outline>
</glyph>
<glyph name="alef-hebr" format="2">
  <advance width="631"/>
  <unicode hex="05D0"/>
  <anchor x="329" y="0" name="Anchor_1"/>
  <anchor x="248" y="-99" name="dagesh"/>
  <outline>
    <contour>
      <point x="389" y="219" type="line"/>
      <point x="358" y="257" type="line"/>
      <point x="540" y="604" type="line"/>
      <point x="579" y="579" type="line"/>
    </contour>
    <contour>
      <point x="581" y="0" type="line"/>
      <point x="520" y="0" type="line"/>
      <point x="75" y="587" type="line"/>
      <point x="122" y="604" type="line"/>
    </contour>
    <contour>
      <point x="124" y="0" type="line"/>
      <point x="75" y="0" type="line"/>
      <point x="75" y="232" type="line" smooth="yes"/>
      <point x="75" y="337"/>
      <point x="126" y="391"/>
      <point x="224" y="439" type="curve"/>
      <point x="251" y="408" type="line"/>
      <point x="159" y="360"/>
      <point x="124" y="320"/>
      <point x="124" y="237" type="curve" smooth="yes"/>
    </contour>
  </outline>
</glyph>
<glyph name="bet-hebr" format="2">
  <advance width="520"/>
  <unicode hex="05D1"/>
  <anchor x="268" y="0" name="Anchor_1"/>
  <anchor x="206" y="0" name="dagesh"/>
  <outline>
    <contour>
      <point x="430" y="590" type="line"/>
      <point x="430" y="39" type="line"/>
      <point x="490" y="39" type="line"/>
      <point x="485" y="0" type="line"/>
      <point x="65" y="0" type="line"/>
      <point x="65" y="39" type="line"/>
      <point x="381" y="39" type="line"/>
      <point x="381" y="551" type="line"/>
      <point x="65" y="551" type="line"/>
      <point x="75" y="590" type="line"/>
    </contour>
  </outline>
</glyph>
<glyph name="gimel-hebr" format="2">
  <advance width="380"/>
  <unicode hex="05D2"/>
  <anchor x="210" y="0" name="Anchor_1"/>
  <anchor x="121" y="21" name="dagesh"/>
  <outline>
    <contour>
      <point x="350" y="3" type="line"/>
      <point x="303" y="-10" type="line"/>
      <point x="278" y="65" type="line" smooth="yes"/>
      <point x="265.333" y="104.333"/>
      <point x="257" y="134.333"/>
      <point x="253" y="155" type="curve"/>
      <point x="216" y="59"/>
      <point x="154" y="-8"/>
      <point x="52" y="-6" type="curve"/>
      <point x="57" y="40" type="line"/>
      <point x="162.96" y="45.728"/>
      <point x="237" y="160.816"/>
      <point x="237" y="258" type="curve" smooth="yes"/>
      <point x="237" y="551" type="line"/>
      <point x="68" y="551" type="line"/>
      <point x="78" y="590" type="line"/>
      <point x="286" y="590" type="line"/>
      <point x="286" y="259" type="line" smooth="yes"/>
      <point x="286" y="209.667"/>
      <point x="297" y="153.667"/>
      <point x="319" y="91" type="curve" smooth="yes"/>
    </contour>
  </outline>
</glyph>
<glyph name="dalet-hebr" format="2">
  <advance width="523"/>
  <unicode hex="05D3"/>
  <anchor x="367" y="0" name="Anchor_1"/>
  <anchor x="199" y="0" name="dagesh"/>
  <outline>
    <contour>
      <point x="403" y="0" type="line"/>
      <point x="354" y="0" type="line"/>
      <point x="354" y="551" type="line"/>
      <point x="60" y="551" type="line"/>
      <point x="70" y="590" type="line"/>
      <point x="485" y="590" type="line"/>
      <point x="480" y="551" type="line"/>
      <point x="403" y="551" type="line"/>
    </contour>
  </outline>
</glyph>
<glyph name="he-hebr" format="2">
  <advance width="596"/>
  <unicode hex="05D4"/>
  <anchor x="304" y="0" name="Anchor_1"/>
  <anchor x="295" y="0" name="dagesh"/>
  <anchor x="34" y="0" name="holam"/>
  <outline>
    <contour>
      <point x="511" y="0" type="line"/>
      <point x="462" y="0" type="line"/>
      <point x="462" y="409" type="line" smooth="yes"/>
      <point x="462" y="512"/>
      <point x="410" y="554"/>
      <point x="288" y="554" type="curve" smooth="yes"/>
      <point x="202" y="554"/>
      <point x="136" y="535"/>
      <point x="87" y="516" type="curve"/>
      <point x="68" y="553" type="line"/>
      <point x="106" y="571"/>
      <point x="189" y="595"/>
      <point x="288" y="595" type="curve" smooth="yes"/>
      <point x="474" y="595"/>
      <point x="511" y="497"/>
      <point x="511" y="408" type="curve" smooth="yes"/>
    </contour>
    <contour>
      <point x="117" y="0" type="line"/>
      <point x="68" y="0" type="line"/>
      <point x="68" y="340" type="line"/>
      <point x="117" y="366" type="line"/>
    </contour>
  </outline>
</glyph>
<glyph name="vav-hebr" format="2">
  <advance width="329"/>
  <unicode hex="05D5"/>
  <anchor x="218" y="0" name="Anchor_1"/>
  <anchor x="110" y="0" name="dagesh"/>
  <outline>
    <contour>
      <point x="239" y="0" type="line"/>
      <point x="190" y="0" type="line"/>
      <point x="190" y="551" type="line"/>
      <point x="60" y="551" type="line"/>
      <point x="70" y="590" type="line"/>
      <point x="239" y="590" type="line"/>
    </contour>
  </outline>
</glyph>
<glyph name="zayin-hebr" format="2">
  <advance width="394"/>
  <unicode hex="05D6"/>
  <anchor x="275" y="0" name="Anchor_1"/>
  <anchor x="110" y="0" name="dagesh"/>
  <outline>
    <contour>
      <point x="292" y="3" type="line"/>
      <point x="243" y="-4" type="line"/>
      <point x="140" y="550" type="line"/>
      <point x="60" y="550" type="line"/>
      <point x="70" y="590" type="line"/>
      <point x="339" y="590" type="line"/>
      <point x="330" y="550" type="line"/>
      <point x="189" y="550" type="line"/>
    </contour>
  </outline>
</glyph>
<glyph name="het-hebr" format="2">
  <advance width="610"/>
  <unicode hex="05D7"/>
  <anchor x="313" y="0" name="Anchor_1"/>
  <anchor x="301" y="0" name="dagesh"/>
  <outline>
    <contour>
      <point x="525" y="0" type="line"/>
      <point x="476" y="0" type="line"/>
      <point x="476" y="422" type="line" smooth="yes"/>
      <point x="476" y="536"/>
      <point x="393" y="552"/>
      <point x="257" y="552" type="curve" smooth="yes"/>
      <point x="216" y="552"/>
      <point x="176" y="551"/>
      <point x="139" y="548" type="curve"/>
      <point x="139" y="0" type="line"/>
      <point x="90" y="0" type="line"/>
      <point x="90" y="582" type="line"/>
      <point x="148" y="590"/>
      <point x="221" y="596"/>
      <point x="295" y="596" type="curve" smooth="yes"/>
      <point x="487" y="596"/>
      <point x="525" y="519"/>
      <point x="525" y="421" type="curve" smooth="yes"/>
    </contour>
  </outline>
</glyph>
<glyph name="tet-hebr" format="2">
  <advance width="638"/>
  <unicode hex="05D8"/>
  <anchor x="312" y="0" name="Anchor_1"/>
  <anchor x="396" y="0" name="dagesh"/>
  <outline>
    <contour>
      <point x="319" y="-11" type="curve" smooth="yes"/>
      <point x="141" y="-12"/>
      <point x="85" y="116"/>
      <point x="85" y="253" type="curve" smooth="yes"/>
      <point x="85" y="590" type="line"/>
      <point x="132" y="590" type="line"/>
      <point x="134" y="253" type="line" smooth="yes"/>
      <point x="134" y="87"/>
      <point x="217" y="33"/>
      <point x="319" y="33" type="curve" smooth="yes"/>
      <point x="421" y="33"/>
      <point x="504" y="87"/>
      <point x="504" y="253" type="curve" smooth="yes"/>
      <point x="505" y="551" type="line"/>
      <point x="459" y="549"/>
      <point x="371" y="514"/>
      <point x="320" y="346" type="curve"/>
      <point x="281" y="367" type="line"/>
      <point x="329" y="535"/>
      <point x="431" y="590"/>
      <point x="524" y="590" type="curve" smooth="yes"/>
      <point x="553" y="590" type="line"/>
      <point x="553" y="253" type="line" smooth="yes"/>
      <point x="553" y="116"/>
      <point x="497" y="-10"/>
    </contour>
  </outline>
</glyph>
<glyph name="yod-hebr" format="2">
  <advance width="330"/>
  <unicode hex="05D9"/>
  <anchor x="210" y="0" name="Anchor_1"/>
  <anchor x="108" y="138" name="dagesh"/>
  <outline>
    <contour>
      <point x="240" y="284" type="line"/>
      <point x="191" y="267" type="line"/>
      <point x="191" y="551" type="line"/>
      <point x="60" y="551" type="line"/>
      <point x="70" y="590" type="line"/>
      <point x="240" y="590" type="line"/>
    </contour>
  </outline>
</glyph>
<glyph name="finalkaf-hebr" format="2">
  <advance width="540"/>
  <unicode hex="05DA"/>
  <anchor x="249" y="351" name="Anchor_1"/>
  <anchor x="225" y="0" name="dagesh"/>
  <outline>
    <contour>
      <point x="460" y="-179" type="line"/>
      <point x="411" y="-198" type="line"/>
      <point x="411" y="329" type="line" smooth="yes"/>
      <point x="411" y="446"/>
      <point x="381" y="554"/>
      <point x="222" y="554" type="curve" smooth="yes"/>
      <point x="184" y="554"/>
      <point x="134" y="549"/>
      <point x="79" y="533" type="curve"/>
      <point x="65" y="572" type="line"/>
      <point x="113" y="585"/>
      <point x="169" y="593"/>
      <point x="226" y="593" type="curve" smooth="yes"/>
      <point x="380" y="593"/>
      <point x="460" y="522"/>
      <point x="460" y="338" type="curve" smooth="yes"/>
    </contour>
  </outline>
</glyph>
<glyph name="kaf-hebr" format="2">
  <advance width="533"/>
  <unicode hex="05DB"/>
  <anchor x="261" y="0" name="Anchor_1"/>
  <anchor x="216" y="0" name="dagesh"/>
  <outline>
    <contour>
      <point x="216" y="-14" type="curve" smooth="yes"/>
      <point x="152" y="-14"/>
      <point x="95" y="-1"/>
      <point x="55" y="17" type="curve"/>
      <point x="71" y="57" type="line"/>
      <point x="121" y="41"/>
      <point x="163" y="29"/>
      <point x="222" y="29" type="curve" smooth="yes"/>
      <point x="318" y="29"/>
      <point x="419" y="67"/>
      <point x="419" y="289" type="curve" smooth="yes"/>
      <point x="419" y="509"/>
      <point x="332" y="554"/>
      <point x="215" y="554" type="curve" smooth="yes"/>
      <point x="166" y="554"/>
      <point x="120" y="547"/>
      <point x="73" y="533" type="curve"/>
      <point x="59" y="572" type="line"/>
      <point x="101" y="585"/>
      <point x="158" y="595"/>
      <point x="209" y="595" type="curve" smooth="yes"/>
      <point x="338" y="595"/>
      <point x="468" y="552"/>
      <point x="468" y="290" type="curve" smooth="yes"/>
      <point x="468" y="38"/>
      <point x="339" y="-14"/>
    </contour>
  </outline>
</glyph>
<glyph name="lamed-hebr" format="2">
  <advance width="556"/>
  <unicode hex="05DC"/>
  <anchor x="261" y="0" name="Anchor_1"/>
  <anchor x="201" y="90" name="dagesh"/>
  <anchor x="-33" y="0" name="holam"/>
  <outline>
    <contour>
      <point x="211" y="-8" type="line"/>
      <point x="168" y="17" type="line"/>
      <point x="443" y="550" type="line"/>
      <point x="60" y="550" type="line"/>
      <point x="60" y="725" type="line"/>
      <point x="111" y="725" type="line"/>
      <point x="111" y="590" type="line"/>
      <point x="496" y="590" type="line"/>
      <point x="495" y="553" type="line"/>
    </contour>
  </outline>
</glyph>
<glyph name="finalmem-hebr" format="2">
  <advance width="603"/>
  <unicode hex="05DD"/>
  <anchor x="312" y="0" name="Anchor_1"/>
  <anchor x="303" y="0" name="dagesh"/>
  <outline>
    <contour>
      <point x="464" y="37" type="line"/>
      <point x="464" y="553" type="line"/>
      <point x="134" y="553" type="line"/>
      <point x="134" y="37" type="line"/>
    </contour>
    <contour>
      <point x="513" y="0" type="line"/>
      <point x="85" y="0" type="line"/>
      <point x="85" y="590" type="line"/>
      <point x="513" y="590" type="line"/>
    </contour>
  </outline>
</glyph>
<glyph name="mem-hebr" format="2">
  <advance width="654"/>
  <unicode hex="05DE"/>
  <anchor x="350" y="0" name="Anchor_1"/>
  <anchor x="386" y="0" name="dagesh"/>
  <outline>
    <contour>
      <point x="363" y="-9" type="curve" smooth="yes"/>
      <point x="327" y="-9"/>
      <point x="294" y="-1"/>
      <point x="264" y="13" type="curve"/>
      <point x="280" y="54" type="line"/>
      <point x="313" y="42"/>
      <point x="340" y="37"/>
      <point x="372" y="37" type="curve" smooth="yes"/>
      <point x="506" y="37"/>
      <point x="523" y="161"/>
      <point x="523" y="289" type="curve" smooth="yes"/>
      <point x="523" y="551" type="line"/>
      <point x="236" y="551"/>
      <point x="197" y="221"/>
      <point x="111" y="-11" type="curve"/>
      <point x="64" y="4" type="line"/>
      <point x="163" y="289"/>
      <point x="212" y="590"/>
      <point x="522" y="590" type="curve" smooth="yes"/>
      <point x="570" y="590" type="line"/>
      <point x="570" y="258" type="line" smooth="yes"/>
      <point x="570" y="64"/>
      <point x="494" y="-9"/>
    </contour>
    <contour>
      <point x="215" y="355" type="line"/>
      <point x="55" y="579" type="line"/>
      <point x="101" y="598" type="line"/>
      <point x="233" y="413" type="line"/>
    </contour>
  </outline>
</glyph>
<glyph name="finalnun-hebr" format="2">
  <advance width="334"/>
  <unicode hex="05DF"/>
  <anchor x="111" y="375" name="Anchor_1"/>
  <anchor x="117" y="0" name="dagesh"/>
  <outline>
    <contour>
      <point x="244" y="-179" type="line"/>
      <point x="195" y="-198" type="line"/>
      <point x="195" y="551" type="line"/>
      <point x="60" y="551" type="line"/>
      <point x="70" y="590" type="line"/>
      <point x="244" y="590" type="line"/>
    </contour>
  </outline>
</glyph>
<glyph name="nun-hebr" format="2">
  <advance width="418"/>
  <unicode hex="05E0"/>
  <anchor x="220" y="0" name="Anchor_1"/>
  <anchor x="160" y="0" name="dagesh"/>
  <outline>
    <contour>
      <point x="333" y="0" type="line"/>
      <point x="60" y="0" type="line"/>
      <point x="60" y="39" type="line"/>
      <point x="284" y="39" type="line"/>
      <point x="284" y="399" type="line" smooth="yes"/>
      <point x="284" y="505"/>
      <point x="257" y="553"/>
      <point x="171" y="553" type="curve" smooth="yes"/>
      <point x="145" y="553"/>
      <point x="117" y="548"/>
      <point x="87" y="539" type="curve"/>
      <point x="77" y="575" type="line"/>
      <point x="106" y="587"/>
      <point x="137" y="593"/>
      <point x="171" y="593" type="curve" smooth="yes"/>
      <point x="275" y="593"/>
      <point x="333" y="536"/>
      <point x="333" y="420" type="curve" smooth="yes"/>
    </contour>
  </outline>
</glyph>
<glyph name="samekh-hebr" format="2">
  <advance width="617"/>
  <unicode hex="05E1"/>
  <anchor x="327" y="0" name="Anchor_1"/>
  <anchor x="309" y="0" name="dagesh"/>
  <outline>
    <contour>
      <point x="316" y="28" type="curve" smooth="yes"/>
      <point x="416" y="25"/>
      <point x="505" y="95"/>
      <point x="505" y="290" type="curve" smooth="yes"/>
      <point x="505" y="499"/>
      <point x="425" y="553"/>
      <point x="255" y="553" type="curve" smooth="yes"/>
      <point x="216" y="553"/>
      <point x="184" y="551"/>
      <point x="134" y="544" type="curve"/>
      <point x="134" y="266" type="line" smooth="yes"/>
      <point x="134" y="89"/>
      <point x="220" y="31"/>
    </contour>
    <contour>
      <point x="312" y="-13" type="curve" smooth="yes"/>
      <point x="117" y="-10"/>
      <point x="85" y="154"/>
      <point x="85" y="284" type="curve" smooth="yes"/>
      <point x="85" y="581" type="line"/>
      <point x="130" y="587"/>
      <point x="191" y="596"/>
      <point x="258" y="596" type="curve" smooth="yes"/>
      <point x="479" y="596"/>
      <point x="554" y="514"/>
      <point x="554" y="290" type="curve" smooth="yes"/>
      <point x="554" y="102"/>
      <point x="479" y="-16"/>
    </contour>
  </outline>
</glyph>
<glyph name="ayin-hebr" format="2">
  <advance width="586"/>
  <unicode hex="05E2"/>
  <anchor x="303" y="0" name="Anchor_1"/>
  <anchor x="321" y="0" name="dagesh"/>
  <outline>
    <contour>
      <point x="247" y="-13" type="curve" smooth="yes"/>
      <point x="178" y="-13"/>
      <point x="100" y="0"/>
      <point x="50" y="16" type="curve"/>
      <point x="63" y="57" type="line"/>
      <point x="125" y="40"/>
      <point x="184" y="28"/>
      <point x="247" y="28" type="curve" smooth="yes"/>
      <point x="389" y="28"/>
      <point x="452" y="86"/>
      <point x="452" y="289" type="curve" smooth="yes"/>
      <point x="452" y="590" type="line"/>
      <point x="501" y="590" type="line"/>
      <point x="501" y="290" type="line" smooth="yes"/>
      <point x="501" y="142"/>
      <point x="468" y="-13"/>
    </contour>
    <contour>
      <point x="270" y="26" type="line"/>
      <point x="225" y="18" type="line"/>
      <point x="78" y="585" type="line"/>
      <point x="126" y="597" type="line"/>
    </contour>
  </outline>
</glyph>
<glyph name="finalpe-hebr" format="2">
  <advance width="595"/>
  <unicode hex="05E3"/>
  <anchor x="336" y="336" name="Anchor_1"/>
  <anchor x="315" y="0" name="dagesh"/>
  <outline>
    <contour>
      <point x="510" y="-179" type="line"/>
      <point x="461" y="-198" type="line"/>
      <point x="461" y="320" type="line" smooth="yes"/>
      <point x="461" y="470"/>
      <point x="407" y="545"/>
      <point x="298" y="551" type="curve" smooth="yes"/>
      <point x="221" y="556"/>
      <point x="146" y="550"/>
      <point x="124" y="548" type="curve"/>
      <point x="115" y="364" type="line" smooth="yes"/>
      <point x="113" y="316"/>
      <point x="132" y="283"/>
      <point x="214" y="226" type="curve"/>
      <point x="192" y="191" type="line"/>
      <point x="102" y="239"/>
      <point x="62" y="290"/>
      <point x="65" y="352" type="curve" smooth="yes"/>
      <point x="75" y="581" type="line"/>
      <point x="130" y="589"/>
      <point x="183" y="595"/>
      <point x="244" y="595" type="curve" smooth="yes"/>
      <point x="411" y="595"/>
      <point x="510" y="551"/>
      <point x="510" y="316" type="curve" smooth="yes"/>
    </contour>
  </outline>
</glyph>
<glyph name="pe-hebr" format="2">
  <advance width="581"/>
  <unicode hex="05E4"/>
  <anchor x="314" y="0" name="Anchor_1"/>
  <anchor x="320" y="0" name="dagesh"/>
  <outline>
    <contour>
      <point x="252" y="-13" type="curve" smooth="yes"/>
      <point x="179" y="-13"/>
      <point x="115" y="-1"/>
      <point x="65" y="23" type="curve"/>
      <point x="84" y="64" type="line"/>
      <point x="140" y="40"/>
      <point x="199" y="29"/>
      <point x="261" y="29" type="curve" smooth="yes"/>
      <point x="421" y="29"/>
      <point x="469" y="131"/>
      <point x="469" y="318" type="curve" smooth="yes"/>
      <point x="469" y="488"/>
      <point x="412" y="554"/>
      <point x="248" y="554" type="curve" smooth="yes"/>
      <point x="211" y="554"/>
      <point x="190" y="553"/>
      <point x="133" y="548" type="curve"/>
      <point x="123" y="364" type="line" smooth="yes"/>
      <point x="121" y="320"/>
      <point x="140" y="284"/>
      <point x="203" y="237" type="curve"/>
      <point x="181" y="202" type="line"/>
      <point x="108" y="240"/>
      <point x="70" y="293"/>
      <point x="73" y="352" type="curve" smooth="yes"/>
      <point x="83" y="581" type="line"/>
      <point x="140" y="590"/>
      <point x="197" y="595"/>
      <point x="253" y="595" type="curve" smooth="yes"/>
      <point x="413" y="595"/>
      <point x="518" y="551"/>
      <point x="518" y="316" type="curve" smooth="yes"/>
      <point x="518" y="87"/>
      <point x="445" y="-13"/>
    </contour>
  </outline>
</glyph>
<glyph name="finaltsadi-hebr" format="2">
  <advance width="565"/>
  <unicode hex="05E5"/>
  <anchor x="175" y="252" name="Anchor_1"/>
  <anchor x="295" y="153" name="dagesh"/>
  <outline>
    <contour>
      <point x="484" y="-187" type="line"/>
      <point x="441" y="-211" type="line"/>
      <point x="50" y="582" type="line"/>
      <point x="94" y="602" type="line"/>
    </contour>
    <contour>
      <point x="302" y="154" type="line"/>
      <point x="271" y="188" type="line"/>
      <point x="488" y="604" type="line"/>
      <point x="527" y="577" type="line"/>
    </contour>
  </outline>
</glyph>
<glyph name="tsadi-hebr" format="2">
  <advance width="570"/>
  <unicode hex="05E6"/>
  <anchor x="300" y="0" name="Anchor_1"/>
  <anchor x="189" y="-99" name="dagesh"/>
  <outline>
    <contour>
      <point x="485" y="0" type="line"/>
      <point x="75" y="0" type="line"/>
      <point x="75" y="39" type="line"/>
      <point x="444" y="39" type="line"/>
      <point x="45" y="586" type="line"/>
      <point x="91" y="603" type="line"/>
      <point x="498" y="39" type="line"/>
    </contour>
    <contour>
      <point x="336" y="219" type="line"/>
      <point x="306" y="257" type="line"/>
      <point x="488" y="604" type="line"/>
      <point x="526" y="579" type="line"/>
    </contour>
  </outline>
</glyph>
<glyph name="qof-hebr" format="2">
  <advance width="599"/>
  <unicode hex="05E7"/>
  <anchor x="356" y="0" name="Anchor_1"/>
  <anchor x="281" y="0" name="dagesh"/>
  <outline>
    <contour>
      <point x="364" y="-12" type="line"/>
      <point x="317" y="6" type="line"/>
      <point x="490" y="551" type="line"/>
      <point x="65" y="551" type="line"/>
      <point x="74" y="590" type="line"/>
      <point x="529" y="590" type="line"/>
      <point x="534" y="540" type="line"/>
    </contour>
    <contour>
      <point x="166" y="-179" type="line"/>
      <point x="117" y="-198" type="line"/>
      <point x="117" y="372" type="line"/>
      <point x="166" y="397" type="line"/>
    </contour>
  </outline>
</glyph>
<glyph name="resh-hebr" format="2">
  <advance width="540"/>
  <unicode hex="05E8"/>
  <anchor x="399" y="0" name="Anchor_1"/>
  <anchor x="225" y="0" name="dagesh"/>
  <outline>
    <contour>
      <point x="460" y="0" type="line"/>
      <point x="411" y="0" type="line"/>
      <point x="411" y="329" type="line" smooth="yes"/>
      <point x="411" y="456"/>
      <point x="374" y="553"/>
      <point x="231" y="553" type="curve" smooth="yes"/>
      <point x="200" y="553"/>
      <point x="139" y="550"/>
      <point x="79" y="533" type="curve"/>
      <point x="65" y="572" type="line"/>
      <point x="113" y="585"/>
      <point x="169" y="593"/>
      <point x="223" y="593" type="curve" smooth="yes"/>
      <point x="380" y="593"/>
      <point x="460" y="522"/>
      <point x="460" y="338" type="curve" smooth="yes"/>
    </contour>
  </outline>
</glyph>
<glyph name="shin-hebr" format="2">
  <advance width="712"/>
  <unicode hex="05E9"/>
  <anchor x="363" y="0" name="Anchor_1"/>
  <anchor x="477" y="-24" name="dagesh"/>
  <anchor x="600" y="0" name="shin - liga"/>
  <anchor x="108" y="0" name="sin"/>
  <outline>
    <contour>
      <point x="381" y="199" type="line"/>
      <point x="332" y="183" type="line"/>
      <point x="332" y="590" type="line"/>
      <point x="381" y="590" type="line"/>
    </contour>
    <contour>
      <point x="356" y="-13" type="curve" smooth="yes"/>
      <point x="164" y="-13"/>
      <point x="85" y="96"/>
      <point x="85" y="275" type="curve" smooth="yes"/>
      <point x="85" y="590" type="line"/>
      <point x="134" y="590" type="line"/>
      <point x="134" y="270" type="line" smooth="yes"/>
      <point x="134" y="113"/>
      <point x="208" y="30"/>
      <point x="356" y="30" type="curve" smooth="yes"/>
      <point x="504" y="30"/>
      <point x="578" y="113"/>
      <point x="578" y="270" type="curve" smooth="yes"/>
      <point x="578" y="590" type="line"/>
      <point x="627" y="590" type="line"/>
      <point x="627" y="275" type="line" smooth="yes"/>
      <point x="627" y="96"/>
      <point x="548" y="-13"/>
    </contour>
  </outline>
</glyph>
<glyph name="tav-hebr" format="2">
  <advance width="653"/>
  <unicode hex="05EA"/>
  <anchor x="362" y="0" name="Anchor_1"/>
  <anchor x="365" y="0" name="dagesh"/>
  <outline>
    <contour>
      <point x="563" y="0" type="line"/>
      <point x="514" y="0" type="line"/>
      <point x="514" y="551" type="line"/>
      <point x="232" y="551" type="line"/>
      <point x="232" y="189" type="line" smooth="yes"/>
      <point x="232" y="67"/>
      <point x="185" y="-7"/>
      <point x="85" y="-7" type="curve" smooth="yes"/>
      <point x="58" y="-7"/>
      <point x="42" y="-5"/>
      <point x="28" y="-1" type="curve"/>
      <point x="32" y="45" type="line"/>
      <point x="49" y="41"/>
      <point x="64" y="39"/>
      <point x="78" y="39" type="curve" smooth="yes"/>
      <point x="144" y="39"/>
      <point x="183" y="77"/>
      <point x="183" y="177" type="curve" smooth="yes"/>
      <point x="183" y="551" type="line"/>
      <point x="63" y="551" type="line"/>
      <point x="73" y="590" type="line"/>
      <point x="563" y="590" type="line"/>
    </contour>
  </outline>
</glyph>
<glyph name="punctuationgeresh-hebr" format="2">
  <advance width="212"/>
  <unicode hex="05F3"/>
  <outline>
    <contour>
      <point x="70" y="485" type="curve"/>
      <point x="66" y="485" type="line"/>
      <point x="66" y="518" type="line"/>
      <point x="110" y="543.333"/>
      <point x="120" y="570.333"/>
      <point x="120" y="621" type="curve" smooth="yes"/>
      <point x="120" y="635" type="line"/>
      <point x="65" y="635" type="line"/>
      <point x="65" y="710" type="line"/>
      <point x="147" y="710" type="line"/>
      <point x="147" y="627" type="line" smooth="yes"/>
      <point x="147" y="555"/>
      <point x="128.667" y="521"/>
    </contour>
  </outline>
</glyph>
<glyph name="punctuationgershayim-hebr" format="2">
  <advance width="350"/>
  <unicode hex="05F4"/>
  <outline>
    <contour>
      <point x="208" y="485" type="curve"/>
      <point x="204" y="485" type="line"/>
      <point x="204" y="518" type="line"/>
      <point x="248" y="543.333"/>
      <point x="258" y="570.333"/>
      <point x="258" y="621" type="curve" smooth="yes"/>
      <point x="258" y="635" type="line"/>
      <point x="203" y="635" type="line"/>
      <point x="203" y="710" type="line"/>
      <point x="285" y="710" type="line"/>
      <point x="285" y="627" type="line" smooth="yes"/>
      <point x="285" y="555"/>
      <point x="266.667" y="521"/>
    </contour>
    <contour>
      <point x="70" y="485" type="curve"/>
      <point x="66" y="485" type="line"/>
      <point x="66" y="518" type="line"/>
      <point x="110" y="543.333"/>
      <point x="120" y="570.333"/>
      <point x="120" y="621" type="curve" smooth="yes"/>
      <point x="120" y="635" type="line"/>
      <point x="65" y="635" type="line"/>
      <point x="65" y="710" type="line"/>
      <point x="147" y="710" type="line"/>
      <point x="147" y="627" type="line" smooth="yes"/>
      <point x="147" y="555"/>
      <point x="128.667" y="521"/>
    </contour>
  </outline>
</glyph>
<glyph name="signanusvaracomb-tml2" format="2">
  <unicode hex="0B82"/>
  <anchor x="0" y="0" name="top-yezi"/>
  <outline>
    <contour>
      <point x="0" y="638" type="curve" smooth="yes"/>
      <point x="60.257" y="638"/>
      <point x="104" y="680.238"/>
      <point x="104" y="737" type="curve" smooth="yes"/>
      <point x="104" y="794.749"/>
      <point x="60.688" y="837"/>
      <point x="0" y="837" type="curve" smooth="yes"/>
      <point x="-56.588" y="837"/>
      <point x="-104" y="794.23"/>
      <point x="-104" y="737" type="curve" smooth="yes"/>
      <point x="-104" y="683.44"/>
      <point x="-58.838" y="638"/>
    </contour>
    <contour>
      <point x="0" y="675" type="curve" smooth="yes"/>
      <point x="-34.667" y="675"/>
      <point x="-61" y="701"/>
      <point x="-61" y="737" type="curve" smooth="yes"/>
      <point x="-61" y="773"/>
      <point x="-34.667" y="799"/>
      <point x="0" y="799" type="curve" smooth="yes"/>
      <point x="36" y="799"/>
      <point x="62" y="773"/>
      <point x="62" y="737" type="curve" smooth="yes"/>
      <point x="62" y="701"/>
      <point x="36" y="675"/>
    </contour>
  </outline>
</glyph>
<glyph name="signviramacomb-tml2" format="2">
  <unicode hex="0BCD"/>
  <anchor x="0" y="0" name="top-yezi"/>
  <outline>
    <contour>
      <point x="0" y="638" type="curve" smooth="yes"/>
      <point x="21.333" y="638"/>
      <point x="35" y="653.333"/>
      <point x="35" y="672" type="curve" smooth="yes"/>
      <point x="35" y="690.667"/>
      <point x="18.667" y="707"/>
      <point x="0" y="707" type="curve" smooth="yes"/>
      <point x="-21.333" y="707"/>
      <point x="-34" y="690.667"/>
      <point x="-34" y="672" type="curve" smooth="yes"/>
      <point x="-34" y="653.333"/>
      <point x="-21.333" y="638"/>
    </contour>
  </outline>
</glyph>
<glyph name="quoteleft" format="2">
  <advance width="152"/>
  <unicode hex="2018"/>
  <outline>
    <contour>
      <point x="69" y="518" type="curve" smooth="yes"/>
      <point x="94.892" y="518"/>
      <point x="107" y="537.527"/>
      <point x="107" y="557" type="curve" smooth="yes"/>
      <point x="107" y="570.333"/>
      <point x="95" y="595"/>
      <point x="71" y="595" type="curve"/>
      <point x="72.333" y="631"/>
      <point x="97.333" y="658.333"/>
      <point x="132" y="677" type="curve"/>
      <point x="116" y="702" type="line"/>
      <point x="62.766" y="677.284"/>
      <point x="30" y="625.215"/>
      <point x="30" y="561" type="curve" smooth="yes"/>
      <point x="30" y="541"/>
      <point x="45" y="518"/>
    </contour>
  </outline>
</glyph>
<glyph name="quotesinglbase" format="2">
  <advance width="152"/>
  <unicode hex="201A"/>
  <outline>
    <contour>
      <point x="83" y="76" type="curve" smooth="yes"/>
      <point x="61.245" y="76"/>
      <point x="45" y="59.932"/>
      <point x="45" y="37" type="curve" smooth="yes"/>
      <point x="45" y="21.399"/>
      <point x="59.149" y="-1"/>
      <point x="81" y="-1" type="curve"/>
      <point x="79.667" y="-37"/>
      <point x="54.667" y="-64.333"/>
      <point x="20" y="-83" type="curve"/>
      <point x="36" y="-108" type="line"/>
      <point x="90.072" y="-80.964"/>
      <point x="122" y="-31.431"/>
      <point x="122" y="33" type="curve" smooth="yes"/>
      <point x="122" y="53"/>
      <point x="107" y="76"/>
    </contour>
  </outline>
</glyph>
<glyph name="quotedblleft" format="2">
  <advance width="275"/>
  <unicode hex="201C"/>
  <outline>
    <contour>
      <point x="69" y="518" type="curve" smooth="yes"/>
      <point x="94.892" y="518"/>
      <point x="107" y="537.527"/>
      <point x="107" y="557" type="curve" smooth="yes"/>
      <point x="107" y="570.333"/>
      <point x="95" y="595"/>
      <point x="71" y="595" type="curve"/>
      <point x="72.333" y="631"/>
      <point x="97.333" y="658.333"/>
      <point x="132" y="677" type="curve"/>
      <point x="116" y="702" type="line"/>
      <point x="62.766" y="677.284"/>
      <point x="30" y="625.215"/>
      <point x="30" y="561" type="curve" smooth="yes"/>
      <point x="30" y="541"/>
      <point x="45" y="518"/>
    </contour>
    <contour>
      <point x="192" y="518" type="curve" smooth="yes"/>
      <point x="217.892" y="518"/>
      <point x="230" y="537.527"/>
      <point x="230" y="557" type="curve" smooth="yes"/>
      <point x="230" y="572.601"/>
      <point x="215.851" y="595"/>
      <point x="194" y="595" type="curve"/>
      <point x="195.333" y="631"/>
      <point x="220.333" y="658.333"/>
      <point x="255" y="677" type="curve"/>
      <point x="239" y="702" type="line"/>
      <point x="185.766" y="677.284"/>
      <point x="153" y="625.215"/>
      <point x="153" y="561" type="curve" smooth="yes"/>
      <point x="153" y="541"/>
      <point x="168" y="518"/>
    </contour>
  </outline>
</glyph>
<glyph name="quotedblbase" format="2">
  <advance width="275"/>
  <unicode hex="201E"/>
  <outline>
    <contour>
      <point x="83" y="76" type="curve" smooth="yes"/>
      <point x="61.245" y="76"/>
      <point x="45" y="59.932"/>
      <point x="45" y="37" type="curve" smooth="yes"/>
      <point x="45" y="21.399"/>
      <point x="59.149" y="-1"/>
      <point x="81" y="-1" type="curve"/>
      <point x="79.667" y="-37"/>
      <point x="54.667" y="-64.333"/>
      <point x="20" y="-83" type="curve"/>
      <point x="36" y="-108" type="line"/>
      <point x="90.072" y="-80.964"/>
      <point x="122" y="-31.431"/>
      <point x="122" y="33" type="curve" smooth="yes"/>
      <point x="122" y="53"/>
      <point x="107" y="76"/>
    </contour>
    <contour>
      <point x="206" y="76" type="curve" smooth="yes"/>
      <point x="184.245" y="76"/>
      <point x="168" y="59.932"/>
      <point x="168" y="37" type="curve" smooth="yes"/>
      <point x="168" y="23.667"/>
      <point x="180" y="-1"/>
      <point x="204" y="-1" type="curve"/>
      <point x="202.667" y="-37"/>
      <point x="177.667" y="-64.333"/>
      <point x="143" y="-83" type="curve"/>
      <point x="159" y="-108" type="line"/>
      <point x="213.072" y="-80.964"/>
      <point x="245" y="-31.431"/>
      <point x="245" y="33" type="curve" smooth="yes"/>
      <point x="245" y="53"/>
      <point x="230" y="76"/>
    </contour>
  </outline>
</glyph>
<glyph name="ellipsis" format="2">
  <advance width="357"/>
  <unicode hex="2026"/>
  <outline>
    <contour>
      <point x="68" y="0" type="curve" smooth="yes"/>
      <point x="88" y="0"/>
      <point x="103" y="14.667"/>
      <point x="103" y="36" type="curve" smooth="yes"/>
      <point x="103" y="57.333"/>
      <point x="88" y="72"/>
      <point x="68" y="72" type="curve" smooth="yes"/>
      <point x="46.667" y="72"/>
      <point x="30" y="57.333"/>
      <point x="30" y="36" type="curve" smooth="yes"/>
      <point x="30" y="14.667"/>
      <point x="46.667" y="0"/>
    </contour>
    <contour>
      <point x="180" y="0" type="curve" smooth="yes"/>
      <point x="200" y="0"/>
      <point x="215" y="14.667"/>
      <point x="215" y="36" type="curve" smooth="yes"/>
      <point x="215" y="57.333"/>
      <point x="200" y="72"/>
      <point x="180" y="72" type="curve" smooth="yes"/>
      <point x="158.667" y="72"/>
      <point x="142" y="57.333"/>
      <point x="142" y="36" type="curve" smooth="yes"/>
      <point x="142" y="14.667"/>
      <point x="158.667" y="0"/>
    </contour>
    <contour>
      <point x="292" y="0" type="curve" smooth="yes"/>
      <point x="312" y="0"/>
      <point x="327" y="14.667"/>
      <point x="327" y="36" type="curve" smooth="yes"/>
      <point x="327" y="57.333"/>
      <point x="312" y="72"/>
      <point x="292" y="72" type="curve" smooth="yes"/>
      <point x="270.667" y="72"/>
      <point x="254" y="57.333"/>
      <point x="254" y="36" type="curve" smooth="yes"/>
      <point x="254" y="14.667"/>
      <point x="270.667" y="0"/>
    </contour>
  </outline>
</glyph>
<glyph name="newsheqelsign" format="2">
  <advance width="844"/>
  <unicode hex="20AA"/>
  <outline>
    <contour>
      <point x="550" y="140" type="line"/>
      <point x="550" y="339" type="line" smooth="yes"/>
      <point x="550" y="412"/>
      <point x="534" y="530"/>
      <point x="326" y="530" type="curve" smooth="yes"/>
      <point x="246" y="530"/>
      <point x="165" y="527"/>
      <point x="85" y="520" type="curve"/>
      <point x="85" y="0" type="line"/>
      <point x="134" y="0" type="line"/>
      <point x="134" y="478" type="line"/>
      <point x="180" y="482"/>
      <point x="244" y="484"/>
      <point x="317" y="484" type="curve" smooth="yes"/>
      <point x="438" y="484"/>
      <point x="501" y="440"/>
      <point x="501" y="339" type="curve" smooth="yes"/>
      <point x="501" y="140" type="line"/>
    </contour>
    <contour>
      <point x="519" y="-11" type="curve" smooth="yes"/>
      <point x="679" y="-11"/>
      <point x="759" y="63"/>
      <point x="759" y="210" type="curve" smooth="yes"/>
      <point x="759" y="530" type="line"/>
      <point x="710" y="530" type="line"/>
      <point x="710" y="195" type="line" smooth="yes"/>
      <point x="710" y="90"/>
      <point x="645" y="37"/>
      <point x="519" y="37" type="curve" smooth="yes"/>
      <point x="403" y="37"/>
      <point x="344" y="90"/>
      <point x="344" y="195" type="curve" smooth="yes"/>
      <point x="344" y="373" type="line"/>
      <point x="295" y="373" type="line"/>
      <point x="295" y="210" type="line" smooth="yes"/>
      <point x="295" y="63"/>
      <point x="376" y="-11"/>
    </contour>
  </outline>
</glyph>
<glyph name="euro" format="2">
  <advance width="593"/>
  <unicode hex="20AC"/>
  <outline>
    <contour>
      <point x="0" y="446" type="line"/>
      <point x="5" y="407" type="line"/>
      <point x="406" y="407" type="line"/>
      <point x="401" y="446" type="line"/>
    </contour>
    <contour>
      <point x="0" y="265" type="line"/>
      <point x="5" y="226" type="line"/>
      <point x="406" y="226" type="line"/>
      <point x="401" y="265" type="line"/>
    </contour>
    <contour>
      <point x="563" y="657" type="line"/>
      <point x="530.382" y="680.558"/>
      <point x="449.313" y="694"/>
      <point x="400" y="694" type="curve" smooth="yes"/>
      <point x="206.214" y="694"/>
      <point x="90" y="539.409"/>
      <point x="90" y="336" type="curve" smooth="yes"/>
      <point x="90" y="150.122"/>
      <point x="186.619" y="-14"/>
      <point x="394" y="-14" type="curve" smooth="yes"/>
      <point x="455.709" y="-14"/>
      <point x="527.952" y="3.529"/>
      <point x="563" y="23" type="curve"/>
      <point x="539" y="59" type="line"/>
      <point x="503" y="43"/>
      <point x="461" y="29"/>
      <point x="389" y="29" type="curve" smooth="yes"/>
      <point x="232.922" y="29"/>
      <point x="145" y="175.597"/>
      <point x="145" y="337" type="curve" smooth="yes"/>
      <point x="145" y="465"/>
      <point x="192.833" y="561.167"/>
      <point x="269.5" y="612.5" type="curve" smooth="yes"/>
      <point x="307.833" y="638.167"/>
      <point x="350.667" y="651"/>
      <point x="398" y="651" type="curve" smooth="yes"/>
      <point x="461.187" y="651"/>
      <point x="501.059" y="639.873"/>
      <point x="543" y="621" type="curve"/>
    </contour>
  </outline>
</glyph>
<glyph name="turkishlirasign" format="2">
  <advance width="491"/>
  <unicode hex="20BA"/>
  <outline>
    <contour>
      <point x="126" y="0" type="line"/>
      <point x="175" y="0" type="line" smooth="yes"/>
      <point x="324.346" y="0"/>
      <point x="471" y="152.211"/>
      <point x="471" y="331" type="curve"/>
      <point x="425" y="331" type="line"/>
      <point x="425" y="181.303"/>
      <point x="291.39" y="39"/>
      <point x="175" y="39" type="curve"/>
      <point x="175" y="399" type="line"/>
      <point x="344" y="459" type="line"/>
      <point x="337" y="497" type="line"/>
      <point x="175" y="440" type="line"/>
      <point x="175" y="507" type="line"/>
      <point x="344" y="567" type="line"/>
      <point x="337" y="605" type="line"/>
      <point x="175" y="548" type="line"/>
      <point x="175" y="706" type="line"/>
      <point x="126" y="696" type="line"/>
      <point x="126" y="530" type="line"/>
      <point x="0" y="486" type="line"/>
      <point x="6" y="447" type="line"/>
      <point x="126" y="489" type="line"/>
      <point x="126" y="422" type="line"/>
      <point x="0" y="378" type="line"/>
      <point x="6" y="339" type="line"/>
      <point x="126" y="381" type="line"/>
    </contour>
  </outline>
</glyph>
<glyph name="rublesign" format="2">
  <advance width="548"/>
  <unicode hex="20BD"/>
  <outline>
    <contour>
      <point x="438" y="204" type="line"/>
      <point x="37" y="204" type="line"/>
      <point x="42" y="165" type="line"/>
      <point x="443" y="165" type="line"/>
    </contour>
    <contour>
      <point x="149" y="0" type="line"/>
      <point x="149" y="264" type="line"/>
      <point x="252" y="264" type="line" smooth="yes"/>
      <point x="393.803" y="264"/>
      <point x="508" y="328.323"/>
      <point x="508" y="475" type="curve" smooth="yes"/>
      <point x="508" y="618.587"/>
      <point x="410.118" y="680"/>
      <point x="263" y="680" type="curve" smooth="yes"/>
      <point x="100" y="680" type="line"/>
      <point x="100" y="0" type="line"/>
    </contour>
    <contour>
      <point x="275" y="640" type="line"/>
      <point x="387.954" y="640"/>
      <point x="458" y="589.221"/>
      <point x="458" y="474" type="curve" smooth="yes"/>
      <point x="458" y="365.075"/>
      <point x="378.129" y="303"/>
      <point x="264" y="303" type="curve" smooth="yes"/>
      <point x="149" y="303" type="line"/>
      <point x="149" y="640" type="line"/>
    </contour>
    <contour>
      <point x="125" y="303" type="line"/>
      <point x="37" y="303" type="line"/>
      <point x="42" y="264" type="line"/>
      <point x="130" y="264" type="line"/>
    </contour>
  </outline>
</glyph>
<glyph name="lscript" format="2">
  <advance width="338"/>
  <unicode hex="2113"/>
  <outline>
    <contour>
      <point x="22" y="185" type="line"/>
      <point x="58.467" y="210.527"/>
      <point x="47.64" y="202.375"/>
      <point x="87" y="231" type="curve"/>
      <point x="87" y="127" type="line" smooth="yes"/>
      <point x="87" y="39.931"/>
      <point x="138.27" y="-12"/>
      <point x="214" y="-12" type="curve" smooth="yes"/>
      <point x="228.738" y="-12"/>
      <point x="253.844" y="-6.104"/>
      <point x="272" y="6" type="curve"/>
      <point x="260" y="43" type="line"/>
      <point x="252" y="39"/>
      <point x="236.333" y="29"/>
      <point x="215" y="29" type="curve" smooth="yes"/>
      <point x="166.615" y="29"/>
      <point x="136" y="70.838"/>
      <point x="136" y="122" type="curve" smooth="yes"/>
      <point x="136" y="274" type="line"/>
      <point x="230.259" y="363.974"/>
      <point x="308" y="473.259"/>
      <point x="308" y="574" type="curve" smooth="yes"/>
      <point x="308" y="654.636"/>
      <point x="262.133" y="702"/>
      <point x="195" y="702" type="curve" smooth="yes"/>
      <point x="131.162" y="702"/>
      <point x="87" y="653.106"/>
      <point x="87" y="566" type="curve" smooth="yes"/>
      <point x="87" y="291" type="line"/>
      <point x="63.314" y="271.261"/>
      <point x="37.572" y="251.089"/>
      <point x="10" y="232" type="curve"/>
    </contour>
    <contour>
      <point x="136" y="337" type="curve"/>
      <point x="136" y="566" type="line" smooth="yes"/>
      <point x="136" y="631.333"/>
      <point x="161.333" y="661"/>
      <point x="196" y="661" type="curve" smooth="yes"/>
      <point x="229.333" y="661"/>
      <point x="258" y="630.667"/>
      <point x="258" y="572" type="curve" smooth="yes"/>
      <point x="258" y="492"/>
      <point x="204" y="407.667"/>
    </contour>
  </outline>
</glyph>
<glyph name="Ohmsign-grek" format="2">
  <advance width="702"/>
  <unicode hex="2126"/>
  <outline>
    <contour>
      <point x="600" y="338" type="curve" smooth="yes"/>
      <point x="600" y="214.293"/>
      <point x="539.274" y="85.195"/>
      <point x="469" y="44" type="curve"/>
      <point x="464" y="0" type="line"/>
      <point x="646" y="0" type="line"/>
      <point x="650" y="39" type="line"/>
      <point x="530" y="39" type="line"/>
      <point x="605.444" y="94.591"/>
      <point x="652" y="226.124"/>
      <point x="652" y="337" type="curve" smooth="yes"/>
      <point x="652" y="470.333"/>
      <point x="604.167" y="582.833"/>
      <point x="515.5" y="647.5" type="curve" smooth="yes"/>
      <point x="471.167" y="679.833"/>
      <point x="417" y="696"/>
      <point x="353" y="696" type="curve" smooth="yes"/>
      <point x="227.667" y="696"/>
      <point x="135.167" y="626"/>
      <point x="86.5" y="518" type="curve" smooth="yes"/>
      <point x="62.167" y="464"/>
      <point x="50" y="403.667"/>
      <point x="50" y="337" type="curve" smooth="yes"/>
      <point x="50" y="217.27"/>
      <point x="101.8" y="92.823"/>
      <point x="171" y="39" type="curve"/>
      <point x="52" y="39" type="line"/>
      <point x="56" y="0" type="line"/>
      <point x="241" y="0" type="line"/>
      <point x="236" y="44" type="line"/>
      <point x="165.726" y="85.195"/>
      <point x="105" y="214.293"/>
      <point x="105" y="338" type="curve" smooth="yes"/>
      <point x="105" y="514.348"/>
      <point x="209.603" y="652"/>
      <point x="353" y="652" type="curve" smooth="yes"/>
      <point x="496.521" y="652"/>
      <point x="600" y="514.11"/>
    </contour>
  </outline>
</glyph>
<glyph name="estimated" format="2">
  <advance width="480"/>
  <unicode hex="212E"/>
  <outline>
    <contour>
      <point x="440" y="242" type="line"/>
      <point x="440" y="247" type="line" smooth="yes"/>
      <point x="440" y="389.509"/>
      <point x="361.102" y="498"/>
      <point x="252" y="498" type="curve" smooth="yes"/>
      <point x="117.435" y="498"/>
      <point x="40" y="402.395"/>
      <point x="40" y="245" type="curve" smooth="yes"/>
      <point x="40" y="87.71"/>
      <point x="116.124" y="-13"/>
      <point x="270" y="-13" type="curve" smooth="yes"/>
      <point x="318.227" y="-13"/>
      <point x="389.487" y="3.692"/>
      <point x="425" y="25" type="curve"/>
      <point x="405" y="62" type="line"/>
      <point x="371.667" y="44.667"/>
      <point x="332.667" y="28"/>
      <point x="262" y="28" type="curve" smooth="yes"/>
      <point x="138" y="28"/>
      <point x="93" y="131"/>
      <point x="91" y="242" type="curve"/>
    </contour>
    <contour>
      <point x="93" y="279" type="line"/>
      <point x="103.592" y="380.679"/>
      <point x="152.041" y="457"/>
      <point x="245" y="457" type="curve" smooth="yes"/>
      <point x="338.303" y="457"/>
      <point x="379.621" y="379.553"/>
      <point x="388" y="279" type="curve"/>
    </contour>
  </outline>
</glyph>
<glyph name="partialdifferential" format="2">
  <advance width="523"/>
  <unicode hex="2202"/>
  <outline>
    <contour>
      <point x="483" y="240" type="curve" smooth="yes"/>
      <point x="483" y="449.235"/>
      <point x="382.976" y="643.531"/>
      <point x="114" y="750" type="curve"/>
      <point x="101" y="718" type="line"/>
      <point x="312" y="625"/>
      <point x="432" y="467"/>
      <point x="432" y="239" type="curve" smooth="yes"/>
      <point x="432" y="129"/>
      <point x="370" y="28"/>
      <point x="259" y="28" type="curve" smooth="yes"/>
      <point x="154.698" y="28"/>
      <point x="91" y="120.115"/>
      <point x="91" y="246" type="curve" smooth="yes"/>
      <point x="91" y="367.381"/>
      <point x="161.989" y="457"/>
      <point x="264" y="457" type="curve" smooth="yes"/>
      <point x="321.963" y="457"/>
      <point x="378.821" y="428.292"/>
      <point x="422" y="381" type="curve"/>
      <point x="444" y="402" type="line"/>
      <point x="397.672" y="459.911"/>
      <point x="347.103" y="498"/>
      <point x="265" y="498" type="curve" smooth="yes"/>
      <point x="126.346" y="498"/>
      <point x="40" y="393.637"/>
      <point x="40" y="245" type="curve" smooth="yes"/>
      <point x="40" y="86.768"/>
      <point x="120.895" y="-11.082"/>
      <point x="259" y="-13" type="curve" smooth="yes"/>
      <point x="396.743" y="-11.06"/>
      <point x="483" y="89.13"/>
    </contour>
  </outline>
</glyph>
<glyph name="bulletoperator" format="2">
  <advance width="183"/>
  <unicode hex="2219"/>
  <outline>
    <contour>
      <point x="92" y="265" type="curve" smooth="yes"/>
      <point x="126.601" y="265"/>
      <point x="153" y="294.972"/>
      <point x="153" y="326" type="curve" smooth="yes"/>
      <point x="153" y="360.638"/>
      <point x="126.795" y="388"/>
      <point x="92" y="388" type="curve" smooth="yes"/>
      <point x="56.428" y="388"/>
      <point x="30" y="362.38"/>
      <point x="30" y="326" type="curve" smooth="yes"/>
      <point x="30" y="293.498"/>
      <point x="56.394" y="265"/>
    </contour>
  </outline>
</glyph>
<glyph name="infinity" format="2">
  <advance width="818"/>
  <unicode hex="221E"/>
  <outline>
    <contour>
      <point x="235" y="458" type="curve" smooth="yes"/>
      <point x="119.855" y="458"/>
      <point x="40" y="368.345"/>
      <point x="40" y="246" type="curve" smooth="yes"/>
      <point x="40" y="125.842"/>
      <point x="112.372" y="46"/>
      <point x="233" y="46" type="curve" smooth="yes"/>
      <point x="298.473" y="46"/>
      <point x="361.99" y="102.981"/>
      <point x="397" y="173" type="curve"/>
      <point x="436.201" y="101.131"/>
      <point x="515.088" y="46"/>
      <point x="583" y="46" type="curve" smooth="yes"/>
      <point x="702.009" y="46"/>
      <point x="778" y="137.374"/>
      <point x="778" y="258" type="curve" smooth="yes"/>
      <point x="778" y="381.68"/>
      <point x="702.946" y="458"/>
      <point x="585" y="458" type="curve" smooth="yes"/>
      <point x="523.708" y="458"/>
      <point x="459.738" y="406.477"/>
      <point x="422" y="331" type="curve"/>
      <point x="384.098" y="402.593"/>
      <point x="303.534" y="458"/>
    </contour>
    <contour>
      <point x="421" y="213" type="curve"/>
      <point x="433" y="249" type="line" smooth="yes"/>
      <point x="458.368" y="321.932"/>
      <point x="514.491" y="415"/>
      <point x="582" y="415" type="curve" smooth="yes"/>
      <point x="672.402" y="415"/>
      <point x="729" y="352.838"/>
      <point x="729" y="259" type="curve" smooth="yes"/>
      <point x="729" y="156.88"/>
      <point x="670.093" y="89"/>
      <point x="582" y="89" type="curve" smooth="yes"/>
      <point x="509.708" y="89"/>
      <point x="456.05" y="149.085"/>
    </contour>
    <contour>
      <point x="397" y="291" type="curve"/>
      <point x="385" y="255" type="line" smooth="yes"/>
      <point x="356.117" y="174.77"/>
      <point x="304.817" y="89"/>
      <point x="237" y="89" type="curve" smooth="yes"/>
      <point x="147.905" y="89"/>
      <point x="89" y="149.005"/>
      <point x="89" y="245" type="curve" smooth="yes"/>
      <point x="89" y="350.623"/>
      <point x="150.427" y="415"/>
      <point x="237" y="415" type="curve" smooth="yes"/>
      <point x="305.009" y="415"/>
      <point x="362.872" y="359.255"/>
    </contour>
  </outline>
</glyph>
<glyph name="integral" format="2">
  <advance width="293"/>
  <unicode hex="222B"/>
  <outline>
    <contour>
      <point x="171" y="660" type="line"/>
      <point x="171" y="708"/>
      <point x="189.333" y="742"/>
      <point x="240" y="742" type="curve" smooth="yes"/>
      <point x="253.333" y="742"/>
      <point x="273" y="737"/>
      <point x="281" y="733" type="curve"/>
      <point x="293" y="770" type="line"/>
      <point x="280.627" y="776.187"/>
      <point x="254.266" y="783"/>
      <point x="227" y="783" type="curve" smooth="yes"/>
      <point x="154.87" y="783"/>
      <point x="122" y="727.9"/>
      <point x="122" y="644" type="curve" smooth="yes"/>
      <point x="122" y="-56" type="line" smooth="yes"/>
      <point x="122" y="-104"/>
      <point x="103.667" y="-138"/>
      <point x="53" y="-138" type="curve" smooth="yes"/>
      <point x="39.667" y="-138"/>
      <point x="20" y="-133"/>
      <point x="12" y="-129" type="curve"/>
      <point x="0" y="-166" type="line"/>
      <point x="18.484" y="-171.281"/>
      <point x="34.614" y="-179"/>
      <point x="66" y="-179" type="curve" smooth="yes"/>
      <point x="135.744" y="-179"/>
      <point x="171" y="-128.201"/>
      <point x="171" y="-40" type="curve" smooth="yes"/>
    </contour>
  </outline>
</glyph>
<glyph name="almostequalto" format="2">
  <advance width="502"/>
  <unicode hex="2248"/>
  <outline>
    <contour>
      <point x="434" y="381" type="line"/>
      <point x="426.25" y="353.876"/>
      <point x="394.352" y="342"/>
      <point x="362" y="342" type="curve" smooth="yes"/>
      <point x="336.667" y="342"/>
      <point x="299.667" y="350.333"/>
      <point x="253" y="365" type="curve" smooth="yes"/>
      <point x="207" y="379.667"/>
      <point x="169" y="387"/>
      <point x="139" y="387" type="curve" smooth="yes"/>
      <point x="94.184" y="387"/>
      <point x="37.957" y="364.741"/>
      <point x="30" y="317" type="curve"/>
      <point x="68" y="308" type="line"/>
      <point x="77.675" y="335.089"/>
      <point x="105.442" y="347"/>
      <point x="140" y="347" type="curve" smooth="yes"/>
      <point x="169.333" y="347"/>
      <point x="208" y="339.667"/>
      <point x="256" y="325" type="curve" smooth="yes"/>
      <point x="305.333" y="310.333"/>
      <point x="340.333" y="302"/>
      <point x="363" y="302" type="curve" smooth="yes"/>
      <point x="407.816" y="302"/>
      <point x="464.043" y="324.259"/>
      <point x="472" y="372" type="curve"/>
    </contour>
    <contour>
      <point x="434" y="199" type="line"/>
      <point x="426.25" y="171.876"/>
      <point x="394.352" y="160"/>
      <point x="362" y="160" type="curve" smooth="yes"/>
      <point x="336.667" y="160"/>
      <point x="299.667" y="168.333"/>
      <point x="253" y="183" type="curve" smooth="yes"/>
      <point x="207" y="197.667"/>
      <point x="169" y="205"/>
      <point x="139" y="205" type="curve" smooth="yes"/>
      <point x="94.184" y="205"/>
      <point x="37.957" y="182.741"/>
      <point x="30" y="135" type="curve"/>
      <point x="68" y="126" type="line"/>
      <point x="77.675" y="153.089"/>
      <point x="105.442" y="165"/>
      <point x="140" y="165" type="curve" smooth="yes"/>
      <point x="169.333" y="165"/>
      <point x="208" y="157.667"/>
      <point x="256" y="143" type="curve" smooth="yes"/>
      <point x="305.333" y="128.333"/>
      <point x="340.333" y="120"/>
      <point x="363" y="120" type="curve" smooth="yes"/>
      <point x="407.816" y="120"/>
      <point x="464.043" y="142.259"/>
      <point x="472" y="190" type="curve"/>
    </contour>
  </outline>
</glyph>
<glyph name="dotaccent.case" format="2">
  <advance width="97"/>
  <anchor x="48" y="680" name="_top"/>
  <outline>
    <contour>
      <point x="48" y="768" type="curve" smooth="yes"/>
      <point x="69.333" y="768"/>
      <point x="87" y="784.667"/>
      <point x="87" y="806" type="curve" smooth="yes"/>
      <point x="87" y="827.333"/>
      <point x="69.333" y="844"/>
      <point x="48" y="844" type="curve" smooth="yes"/>
      <point x="25.333" y="844"/>
      <point x="10" y="827.333"/>
      <point x="10" y="806" type="curve" smooth="yes"/>
      <point x="10" y="784.667"/>
      <point x="25.333" y="768"/>
    </contour>
  </outline>
</glyph>
<glyph name="macron.case" format="2">
  <advance width="261"/>
  <anchor x="130" y="680" name="_top"/>
  <outline>
    <contour>
      <point x="10" y="790" type="line"/>
      <point x="251" y="790" type="line"/>
      <point x="246" y="827" type="line"/>
      <point x="10" y="827" type="line"/>
    </contour>
  </outline>
</glyph>
<glyph name="ringcomb.case" format="2">
  <anchor x="99" y="680" name="_top"/>
  <outline>
    <contour>
      <point x="99" y="909" type="curve" smooth="yes"/>
      <point x="48.861" y="909"/>
      <point x="10" y="870.977"/>
      <point x="10" y="825" type="curve" smooth="yes"/>
      <point x="10" y="778.333"/>
      <point x="51" y="744"/>
      <point x="99" y="744" type="curve" smooth="yes"/>
      <point x="147.426" y="744"/>
      <point x="187" y="778.158"/>
      <point x="187" y="825" type="curve" smooth="yes"/>
      <point x="187" y="873.23"/>
      <point x="147.567" y="909"/>
    </contour>
    <contour>
      <point x="99" y="774" type="curve" smooth="yes"/>
      <point x="69.667" y="774"/>
      <point x="49" y="795.667"/>
      <point x="49" y="825" type="curve" smooth="yes"/>
      <point x="49" y="855.667"/>
      <point x="69.667" y="878"/>
      <point x="99" y="878" type="curve" smooth="yes"/>
      <point x="128.333" y="878"/>
      <point x="148" y="855.667"/>
      <point x="148" y="825" type="curve" smooth="yes"/>
      <point x="148" y="795.667"/>
      <point x="128.333" y="774"/>
    </contour>
  </outline>
</glyph>
<glyph name="zero.zero" format="2">
  <advance width="570"/>
  <outline>
    <contour>
      <point x="40" y="288" type="curve" smooth="yes"/>
      <point x="40" y="113.921"/>
      <point x="142.376" y="-13"/>
      <point x="286" y="-13" type="curve" smooth="yes"/>
      <point x="428.457" y="-13"/>
      <point x="530" y="114.845"/>
      <point x="530" y="289" type="curve" smooth="yes"/>
      <point x="530" y="457.063"/>
      <point x="428.571" y="579"/>
      <point x="286" y="579" type="curve" smooth="yes"/>
      <point x="143.443" y="579"/>
      <point x="40" y="459.351"/>
    </contour>
    <contour>
      <point x="91" y="291" type="curve" smooth="yes"/>
      <point x="91" y="439.033"/>
      <point x="176.497" y="538"/>
      <point x="286" y="538" type="curve" smooth="yes"/>
      <point x="398.398" y="538"/>
      <point x="479" y="431.311"/>
      <point x="479" y="286" type="curve" smooth="yes"/>
      <point x="479" y="136.531"/>
      <point x="398.772" y="28"/>
      <point x="286" y="28" type="curve" smooth="yes"/>
      <point x="176.693" y="28"/>
      <point x="91" y="133.279"/>
    </contour>
    <contour>
      <point x="143" y="88" type="line"/>
      <point x="455" y="453" type="line"/>
      <point x="426" y="485" type="line"/>
      <point x="110" y="114" type="line"/>
    </contour>
  </outline>
</glyph>
